<svg width="117" height="106" viewBox="0 0 117 106" fill="none" xmlns="http://www.w3.org/2000/svg">
<path d="M5.31605 24.7561C5.42334 19.2751 10.1152 17.0425 15.0376 14.6295C19.7591 12.3149 23.4864 11.1486 28.4046 13.0092C31.8712 14.3208 33.9693 15.8054 35.6957 19.0852C37.1859 21.9161 36.9109 27.1864 36.9109 27.1864C36.9109 27.1864 41.1752 22.8091 44.6071 21.1105C49.9004 18.4907 53.6893 19.1948 59.5944 19.0852C66.4411 18.9581 77.0121 21.1105 77.0121 21.1105C77.0121 21.1105 74.9584 16.2064 75.3919 13.0092C75.3919 13.0092 76.6692 8.35458 78.6324 6.12318C82.0694 2.21654 86.0064 1.20613 91.1893 1.66749C95.3491 2.03779 97.8299 3.3038 100.911 6.12318C104.987 9.85326 107.301 13.607 106.582 19.0852C105.877 24.45 98.0754 30.0219 98.0754 30.0219C98.0754 30.0219 103.578 37.7267 106.582 42.9839C108.267 45.9329 109.74 47.4029 110.632 50.6801C111.713 54.6485 111.726 57.2469 110.632 61.2117C109.615 64.8999 107.745 66.4404 105.772 69.718C103.938 72.7632 100.911 77.4142 100.911 77.4142C100.911 77.4142 107.376 75.4624 110.632 77.4142C114.214 79.5612 115.321 82.9659 115.088 87.1357C114.968 89.2839 114.648 90.6022 113.468 92.4015C111.563 95.3057 109.235 96.6019 105.772 96.8572C100.783 97.2249 95.2399 89.5661 95.2399 89.5661C95.2399 89.5661 96.1736 94.1673 95.2399 96.8572C93.8052 100.99 91.0825 103.669 86.7336 104.148C83.4019 104.516 81.2951 103.349 78.6324 101.313C75.4212 98.8576 73.3665 92.4015 73.3665 92.4015C73.3665 92.4015 72.8256 98.7781 70.126 101.313C67.791 103.505 65.6324 104.206 62.4299 104.148C59.3753 104.094 57.6741 103.017 55.1387 101.313C51.4888 98.8591 48.2527 92.4015 48.2527 92.4015C48.2527 92.4015 47.7822 99.2988 44.6071 101.313C41.6684 103.177 39.0401 102.275 35.6957 101.313C32.4889 100.39 29.9062 99.8372 28.4046 96.8572C27.1233 94.3144 28.4046 89.5661 28.4046 89.5661C28.4046 89.5661 22.7337 90.7814 19.8983 92.4015C14.1731 95.6729 7.76667 96.028 5.31605 95.237C2.86542 94.4461 0.725295 91.5915 1.26538 88.351C1.80546 85.1105 2.48056 84.3004 3.69579 81.87C5.22625 78.8092 10.1768 77.4142 10.1768 77.4142C10.1768 77.4142 6.47544 73.0784 5.31605 69.718C3.6651 64.9328 4.27323 61.7094 5.31605 56.756C6.30878 52.0405 8.1802 49.8 10.1768 45.4142C11.9943 41.4218 15.0376 35.2877 15.0376 35.2877C15.0376 35.2877 5.2065 30.3522 5.31605 24.7561Z" fill="#FFFFE5"/>
<path d="M13.6341 15.6912L14.5391 16.8875L13.6341 15.6912ZM10.6026 17.392L10.0545 15.9958L10.6026 17.392ZM5.83166 22.0712L4.39411 21.6429L5.83166 22.0712ZM5.94449 25.3088L7.33703 24.7513L5.94449 25.3088ZM9.3205 30.9902L8.18323 31.9683L9.3205 30.9902ZM11.9367 33.193L11.1659 34.4798L11.9367 33.193ZM14.2021 35.4909L15.5152 34.7658L14.2021 35.4909ZM13.7628 38.24L12.6508 37.2333L13.7628 38.24ZM6.51044 53.9946L5.07731 53.5518L6.51044 53.9946ZM8.68959 76.3408L7.46381 77.2054L8.68959 76.3408ZM1.98715 86.3714L0.487474 86.3403L1.98715 86.3714ZM8.439 95.7184L8.13619 94.2492L8.439 95.7184ZM15.225 94.2115L14.5333 92.8805L15.225 94.2115ZM21.4995 91.1839L22.206 92.5071L21.4995 91.1839ZM24.7775 89.8796L25.1711 91.327L24.7775 89.8796ZM27.8302 92.8495L29.2949 92.526L27.8302 92.8495ZM28.5239 96.3198L27.0471 96.5826L28.5239 96.3198ZM33.5244 100.188L32.8909 101.547L33.5244 100.188ZM40.1228 102.081L39.8856 103.562L40.1228 102.081ZM43.2626 101.514L42.5091 100.217L43.2626 101.514ZM46.044 99.5208L47.0239 100.656L46.044 99.5208ZM47.6398 96.6037L46.1557 96.3864L47.6398 96.6037ZM48.1952 94.131L49.5788 94.7104L48.1952 94.131ZM51.442 97.798L50.0694 98.403L51.442 97.798ZM53.6606 100.456L54.4998 99.2125L53.6606 100.456ZM56.6348 102.388L57.4292 101.116L56.6348 102.388ZM59.8463 103.426L59.7494 104.923L59.8463 103.426ZM63.2777 103.728L63.1117 105.219L63.2777 103.728ZM66.444 103.086L65.7029 101.782L66.444 103.086ZM69.2988 101.326L70.1314 102.574L69.2988 101.326ZM72.6118 95.6371L74.0125 96.1738L72.6118 95.6371ZM73.4476 94.1526L72.6154 95.4006L73.4476 94.1526ZM74.5959 95.7873L73.3249 96.5839L74.5959 95.7873ZM79.2696 100.73L80.2405 99.5862L79.2696 100.73ZM84.9625 104.223L84.7605 105.71L84.9625 104.223ZM95.2619 93.1771L93.7669 93.0552L95.2619 93.1771ZM95.9161 91.0399L96.8729 92.1951L95.9161 91.0399ZM97.2531 92.2526L98.5938 91.5798L97.2531 92.2526ZM99.7877 94.5538L100.329 93.1548L99.7877 94.5538ZM103.044 95.8446L103.609 94.4553L103.044 95.8446ZM106.273 96.449L106.294 97.9488L106.273 96.449ZM111.859 93.332L110.843 92.2291L111.859 93.332ZM113.882 90.7466L112.571 90.0191L113.882 90.7466ZM114.533 87.5606L113.04 87.7062L114.533 87.5606ZM114.745 84.049L116.213 84.3576L114.745 84.049ZM111.447 78.2993L112.718 77.5028L111.447 78.2993ZM108.68 76.4663L108.439 77.9468L108.68 76.4663ZM105.134 76.4548L105.373 77.9356L105.134 76.4548ZM102.579 76.8068L102.448 75.3125L102.579 76.8068ZM102.756 75.442L103.992 76.2925L102.756 75.442ZM104.518 72.4344L105.864 73.0968L104.518 72.4344ZM108.123 66.4849L106.908 65.6049L108.123 66.4849ZM111.305 53.2489L109.865 53.6685L111.305 53.2489ZM110.152 49.9599L111.538 49.3867L110.152 49.9599ZM108.763 46.7931L110.124 46.1618L108.763 46.7931ZM106.819 43.9167L107.916 42.8939L106.819 43.9167ZM104.967 40.9715L106.366 40.4284L104.967 40.9715ZM103.151 38.0213L104.266 37.0171L103.151 38.0213ZM101.29 35.0779L99.9062 35.6557L101.29 35.0779ZM99.7445 31.9178L101.05 31.1786L99.7445 31.9178ZM103.465 24.3335L104.74 25.1228L103.465 24.3335ZM106.363 14.9344L104.896 15.2469L106.363 14.9344ZM91.8035 2.04696L91.9497 0.554101L91.8035 2.04696ZM81.4536 2.98342L80.7367 1.66584L81.4536 2.98342ZM75.7408 20.5253L75.228 19.1157L75.7408 20.5253ZM65.9433 19.3829L66.6 18.0343L65.9433 19.3829ZM62.5035 19.1876L62.9971 20.6041V20.6041L62.5035 19.1876ZM58.9977 19.4899L58.7297 20.9658L58.9977 19.4899ZM55.5199 18.8526L55.7927 17.3776L55.5199 18.8526ZM52.0078 18.6531L52.1118 20.1495L52.0078 18.6531ZM48.6613 19.6641L47.9255 18.357L48.6613 19.6641ZM39.5388 24.6037L40.688 25.5677L39.5388 24.6037ZM37.7945 25.7958L38.1821 24.3467L37.7945 25.7958ZM37.2926 23.8397L35.7952 23.7511L37.2926 23.8397ZM34.9122 17.2239L36.0851 16.2888L34.9122 17.2239ZM32.1956 15.0591L32.8406 13.7049L32.1956 15.0591ZM19.1216 13.3312L19.6458 14.7366L19.1216 13.3312ZM14.8812 14.3105L13.5343 14.9708L14.8812 14.3105ZM13.6341 15.6912L12.7291 14.495C11.9021 15.1207 11.0116 15.6201 10.0545 15.9958L10.6026 17.392L11.1507 18.7883C12.3644 18.3119 13.4949 17.6774 14.5391 16.8875L13.6341 15.6912ZM10.6026 17.392L10.0545 15.9958C8.80307 16.487 7.66916 17.1846 6.65892 18.0828L7.65559 19.2038L8.65226 20.3248C9.4007 19.6594 10.2315 19.1491 11.1507 18.7883L10.6026 17.392ZM7.65559 19.2038L6.65892 18.0828C5.57063 19.0504 4.81023 20.2462 4.39411 21.6429L5.83166 22.0712L7.26921 22.4995C7.52631 21.6366 7.98186 20.9209 8.65226 20.3248L7.65559 19.2038ZM5.83166 22.0712L4.39411 21.6429C3.96751 23.0747 4.00599 24.5027 4.55196 25.8663L5.94449 25.3088L7.33703 24.7513C7.05933 24.0577 7.02259 23.3273 7.26921 22.4995L5.83166 22.0712ZM5.94449 25.3088L4.55196 25.8663C4.98977 26.9598 5.49846 28.0096 6.07828 29.0149L7.37764 28.2655L8.67701 27.516C8.16962 26.6363 7.72288 25.715 7.33703 24.7513L5.94449 25.3088ZM7.37764 28.2655L6.07828 29.0149C6.67134 30.0432 7.37414 31.0275 8.18323 31.9683L9.3205 30.9902L10.4578 30.0122C9.76359 29.205 9.17116 28.3728 8.67701 27.516L7.37764 28.2655ZM9.3205 30.9902L8.18323 31.9683C9.04007 32.9646 10.036 33.803 11.1659 34.4798L11.9367 33.193L12.7076 31.9062C11.8524 31.394 11.1042 30.7638 10.4578 30.0122L9.3205 30.9902ZM11.9367 33.193L11.1659 34.4798C11.9502 34.9496 12.5096 35.529 12.889 36.2161L14.2021 35.4909L15.5152 34.7658C14.8592 33.578 13.9084 32.6255 12.7076 31.9062L11.9367 33.193ZM14.2021 35.4909L12.889 36.2161C13.0122 36.4391 13.0119 36.5663 12.9994 36.6446C12.984 36.7409 12.919 36.9371 12.6508 37.2333L13.7628 38.24L14.8748 39.2468C15.4172 38.6477 15.8307 37.938 15.9618 37.118C16.0957 36.2798 15.9097 35.4802 15.5152 34.7658L14.2021 35.4909ZM13.7628 38.24L12.6508 37.2333C11.7585 38.2189 11.0096 39.2851 10.4091 40.4313L11.7377 41.1274L13.0664 41.8236C13.5448 40.9106 14.1459 40.0518 14.8748 39.2468L13.7628 38.24ZM11.7377 41.1274L10.4091 40.4313C9.84166 41.5142 9.3409 42.628 8.90688 43.7723L10.3094 44.3043L11.7119 44.8362C12.1034 43.804 12.5548 42.7999 13.0664 41.8236L11.7377 41.1274ZM10.3094 44.3043L8.90688 43.7723C8.49538 44.8573 8.08005 45.9409 7.66089 47.0232L9.05963 47.5649L10.4584 48.1067C10.8801 47.0179 11.2979 45.9277 11.7119 44.8362L10.3094 44.3043ZM9.05963 47.5649L7.66089 47.0232C7.24947 48.0854 6.81346 49.1324 6.35285 50.1642L7.72257 50.7757L9.0923 51.3871C9.57357 50.309 10.0289 49.2155 10.4584 48.1067L9.05963 47.5649ZM7.72257 50.7757L6.35285 50.1642C5.85771 51.2734 5.43241 52.4027 5.07731 53.5518L6.51044 53.9946L7.94357 54.4375C8.26277 53.4046 8.64556 52.3879 9.0923 51.3871L7.72257 50.7757ZM6.51044 53.9946L5.07731 53.5518C4.75159 54.6058 4.38118 55.66 3.96584 56.7145L5.36149 57.2642L6.75713 57.8139C7.19945 56.6909 7.59501 55.5654 7.94357 54.4375L6.51044 53.9946ZM5.36149 57.2642L3.96584 56.7145C3.48602 57.9327 3.18306 59.1926 3.05865 60.4904L4.5518 60.6336L6.04496 60.7767C6.14247 59.7595 6.3793 58.7732 6.75713 57.8139L5.36149 57.2642ZM4.5518 60.6336L3.05865 60.4904C2.94815 61.6431 2.83124 62.8031 2.70793 63.9706L4.19963 64.1281L5.69133 64.2857C5.81565 63.1088 5.93352 61.9391 6.04496 60.7767L4.5518 60.6336ZM4.19963 64.1281L2.70793 63.9706C2.56939 65.2822 2.61434 66.5938 2.84157 67.9014L4.31942 67.6446L5.79727 67.3877C5.61715 66.3512 5.58224 65.3185 5.69133 64.2857L4.19963 64.1281ZM4.31942 67.6446L2.84157 67.9014C3.07357 69.2365 3.51705 70.5021 4.16943 71.692L5.48473 70.9709L6.80003 70.2498C6.30601 69.3488 5.97262 68.3968 5.79727 67.3877L4.31942 67.6446ZM5.48473 70.9709L4.16943 71.692C4.75084 72.7525 5.34595 73.795 5.95477 74.8195L7.24426 74.0532L8.53375 73.2869C7.94292 72.2927 7.36501 71.2804 6.80003 70.2498L5.48473 70.9709ZM7.24426 74.0532L5.95477 74.8195C6.56072 75.8392 7.06606 76.6414 7.46381 77.2054L8.68959 76.3408L9.91536 75.4762C9.58566 75.0088 9.12745 74.286 8.53375 73.2869L7.24426 74.0532ZM8.68959 76.3408L7.46381 77.2054C7.41451 77.1355 7.33891 76.9878 7.33272 76.7814C7.32665 76.579 7.39092 76.4403 7.4211 76.3891C7.44566 76.3473 7.44302 76.3694 7.35412 76.4462C7.26877 76.52 7.13271 76.6195 6.92868 76.7408L7.69542 78.0301L8.46217 79.3193C9.04006 78.9756 9.64584 78.5236 10.0066 77.9107C10.2024 77.5778 10.3455 77.1635 10.3314 76.6915C10.3171 76.2154 10.1465 75.804 9.91536 75.4762L8.68959 76.3408ZM7.69542 78.0301L6.92868 76.7408C5.72804 77.4549 4.72283 78.3735 3.92931 79.4937L5.15331 80.3608L6.37731 81.2278C6.92027 80.4614 7.6098 79.8262 8.46217 79.3193L7.69542 78.0301ZM5.15331 80.3608L3.92931 79.4937C3.27004 80.4244 2.59045 81.3531 1.89051 82.2799L3.08751 83.1839L4.28452 84.0879C5.0025 83.1372 5.70011 82.1838 6.37731 81.2278L5.15331 80.3608ZM3.08751 83.1839L1.89051 82.2799C0.989594 83.4728 0.518578 84.8414 0.487474 86.3403L1.98715 86.3714L3.48683 86.4025C3.50496 85.5289 3.76752 84.7724 4.28452 84.0879L3.08751 83.1839ZM1.98715 86.3714L0.487474 86.3403C0.464733 87.4361 0.344006 88.5094 0.12597 89.5613L1.59475 89.8657L3.06353 90.1702C3.31946 88.9354 3.46034 87.6791 3.48683 86.4025L1.98715 86.3714ZM1.59475 89.8657L0.12597 89.5613C-0.194158 91.1057 0.102345 92.59 0.952094 93.9382L2.22107 93.1384L3.49005 92.3386C3.03073 91.6098 2.90969 90.9124 3.06353 90.1702L1.59475 89.8657ZM2.22107 93.1384L0.952094 93.9382C1.77868 95.2497 2.93736 96.205 4.38565 96.7821L4.94088 95.3886L5.4961 93.9952C4.62706 93.6489 3.97254 93.1041 3.49005 92.3386L2.22107 93.1384ZM4.94088 95.3886L4.38565 96.7821C5.80497 97.3476 7.26894 97.4911 8.74181 97.1875L8.439 95.7184L8.13619 94.2492C7.26223 94.4294 6.39411 94.353 5.4961 93.9952L4.94088 95.3886ZM8.439 95.7184L8.74181 97.1875C9.86453 96.9561 10.9769 96.7873 12.0792 96.6805L11.9346 95.1875L11.7901 93.6945C10.5783 93.8118 9.3603 93.9969 8.13619 94.2492L8.439 95.7184ZM11.9346 95.1875L12.0792 96.6805C13.4282 96.5499 14.7107 96.1692 15.9167 95.5425L15.225 94.2115L14.5333 92.8805C13.6662 93.3311 12.7551 93.6011 11.7901 93.6945L11.9346 95.1875ZM15.225 94.2115L15.9167 95.5425C16.9245 95.0188 17.9369 94.5341 18.9539 94.0882L18.3516 92.7145L17.7493 91.3407C16.6706 91.8136 15.5986 92.3269 14.5333 92.8805L15.225 94.2115ZM18.3516 92.7145L18.9539 94.0882C20.0385 93.6127 21.1225 93.0855 22.206 92.5071L21.4995 91.1839L20.7931 89.8607C19.775 90.4042 18.7604 90.8974 17.7493 91.3407L18.3516 92.7145ZM21.4995 91.1839L22.206 92.5071C23.1588 91.9984 24.1466 91.6056 25.1711 91.327L24.7775 89.8796L24.3838 88.4322C23.1393 88.7706 21.9418 89.2474 20.7931 89.8607L21.4995 91.1839ZM24.7775 89.8796L25.1711 91.327C25.394 91.2664 25.5688 91.2348 25.7011 91.2216C25.8347 91.2082 25.9039 91.2158 25.9244 91.2192C25.9414 91.2221 25.8978 91.2174 25.829 91.1729C25.7548 91.125 25.6961 91.0597 25.6603 90.9977L26.9591 90.2473L28.2579 89.4969C27.8385 88.771 27.1521 88.3838 26.4231 88.261C25.7555 88.1484 25.0499 88.251 24.3838 88.4322L24.7775 89.8796ZM26.9591 90.2473L25.6603 90.9977C25.8626 91.3479 26.1138 92.0333 26.3655 93.1729L27.8302 92.8495L29.2949 92.526C29.0249 91.3034 28.6954 90.2541 28.2579 89.4969L26.9591 90.2473ZM27.8302 92.8495L26.3655 93.1729C26.6222 94.3349 26.8493 95.4715 27.0471 96.5826L28.5239 96.3198L30.0007 96.0569C29.7953 94.9031 29.56 93.7261 29.2949 92.526L27.8302 92.8495ZM28.5239 96.3198L27.0471 96.5826C27.3352 98.2011 28.2798 99.4181 29.7734 100.105L30.3997 98.7416L31.0261 97.3786C30.4217 97.1009 30.1157 96.7034 30.0007 96.0569L28.5239 96.3198ZM30.3997 98.7416L29.7734 100.105C30.82 100.586 31.8591 101.066 32.8909 101.547L33.5244 100.188L34.158 98.8279C33.1214 98.3449 32.0775 97.8618 31.0261 97.3786L30.3997 98.7416ZM33.5244 100.188L32.8909 101.547C34.005 102.066 35.1627 102.487 36.3627 102.809L36.7512 101.36L37.1397 99.9109C36.1056 99.6336 35.1122 99.2726 34.158 98.8279L33.5244 100.188ZM36.7512 101.36L36.3627 102.809C37.529 103.121 38.7034 103.372 39.8856 103.562L40.1228 102.081L40.3601 100.6C39.2808 100.427 38.2073 100.197 37.1397 99.9109L36.7512 101.36ZM40.1228 102.081L39.8856 103.562C41.3472 103.796 42.7453 103.549 44.0161 102.811L43.2626 101.514L42.5091 100.217C41.8551 100.597 41.16 100.728 40.3601 100.6L40.1228 102.081ZM43.2626 101.514L44.0161 102.811C45.0633 102.202 46.0658 101.483 47.0239 100.656L46.044 99.5208L45.0641 98.3851C44.2385 99.0975 43.3867 99.7069 42.5091 100.217L43.2626 101.514ZM46.044 99.5208L47.0239 100.656C48.1912 99.6493 48.9002 98.3497 49.124 96.821L47.6398 96.6037L46.1557 96.3864C46.0353 97.2081 45.6804 97.8533 45.0641 98.3851L46.044 99.5208ZM47.6398 96.6037L49.124 96.821C49.2954 95.6506 49.4604 94.993 49.5788 94.7104L48.1952 94.131L46.8116 93.5516C46.5336 94.2154 46.3284 95.2063 46.1557 96.3864L47.6398 96.6037ZM48.1952 94.131L49.5788 94.7104C49.5398 94.8034 49.3715 95.1378 48.9311 95.3064C48.494 95.4738 48.1497 95.3394 48.0649 95.3002C47.9795 95.2605 47.9808 95.2407 48.0768 95.3301C48.1618 95.4092 48.2825 95.5376 48.4406 95.7316L49.6032 94.7838L50.7659 93.836C50.3896 93.3744 49.9012 92.8447 49.3267 92.5784C49.0073 92.4303 48.4622 92.2735 47.8582 92.5048C47.2509 92.7374 46.9497 93.222 46.8116 93.5516L48.1952 94.131ZM49.6032 94.7838L48.4406 95.7316C49.0938 96.5329 49.6369 97.4218 50.0694 98.403L51.442 97.798L52.8146 97.1931C52.2765 95.9721 51.5937 94.8515 50.7659 93.836L49.6032 94.7838ZM51.442 97.798L50.0694 98.403C50.6683 99.7619 51.5923 100.87 52.8215 101.699L53.6606 100.456L54.4998 99.2125C53.7413 98.7005 53.1862 98.0363 52.8146 97.1931L51.442 97.798ZM53.6606 100.456L52.8215 101.699C53.8296 102.38 54.8359 103.033 55.8405 103.66L56.6348 102.388L57.4292 101.116C56.4557 100.508 55.4792 99.8735 54.4998 99.2125L53.6606 100.456ZM56.6348 102.388L55.8405 103.66C57.0376 104.408 58.3474 104.832 59.7494 104.923L59.8463 103.426L59.9433 101.929C59.0413 101.871 58.2101 101.603 57.4292 101.116L56.6348 102.388ZM59.8463 103.426L59.7494 104.923C60.8785 104.996 61.9993 105.095 63.1117 105.219L63.2777 103.728L63.4437 102.237C62.2849 102.108 61.1181 102.005 59.9433 101.929L59.8463 103.426ZM63.2777 103.728L63.1117 105.219C64.5555 105.379 65.9292 105.104 67.185 104.39L66.444 103.086L65.7029 101.782C65.0082 102.177 64.2712 102.329 63.4437 102.237L63.2777 103.728ZM66.444 103.086L67.185 104.39C68.1913 103.819 69.1735 103.213 70.1314 102.574L69.2988 101.326L68.4661 100.079C67.5682 100.678 66.6471 101.246 65.7029 101.782L66.444 103.086ZM69.2988 101.326L70.1314 102.574C71.3099 101.787 72.1808 100.719 72.7255 99.4043L71.3397 98.8303L69.9538 98.2563C69.6332 99.0305 69.1435 99.6264 68.4661 100.079L69.2988 101.326ZM71.3397 98.8303L72.7255 99.4043C73.1634 98.347 73.5924 97.2701 74.0125 96.1738L72.6118 95.6371L71.2111 95.1004C70.8003 96.1724 70.3812 97.2244 69.9538 98.2563L71.3397 98.8303ZM72.6118 95.6371L74.0125 96.1738C74.2151 95.6449 74.3567 95.3356 74.4394 95.1887C74.4918 95.0957 74.4646 95.1694 74.35 95.2785C74.2944 95.3314 74.1168 95.4922 73.8191 95.5815C73.6569 95.6302 73.4528 95.659 73.2241 95.629C72.9918 95.5985 72.7853 95.5139 72.6154 95.4006L73.4476 94.1526L74.2798 92.9046C73.8582 92.6235 73.3689 92.5844 72.9569 92.7081C72.6152 92.8106 72.3894 93.0029 72.2812 93.1059C72.0615 93.3151 71.9122 93.5625 71.8252 93.7169C71.6293 94.0649 71.4239 94.545 71.2111 95.1004L72.6118 95.6371ZM73.4476 94.1526L72.6154 95.4006C72.5061 95.3277 72.4431 95.2615 72.4382 95.2565C72.4238 95.2417 72.4233 95.2397 72.4394 95.2593C72.4715 95.2984 72.5281 95.3727 72.6136 95.4944C72.7827 95.7351 73.0182 96.0945 73.3249 96.5839L74.5959 95.7873L75.8669 94.9908C75.5499 94.4849 75.2821 94.0742 75.0684 93.77C74.9625 93.6192 74.8578 93.4773 74.7588 93.3566C74.6952 93.2791 74.5209 93.0654 74.2798 92.9046L73.4476 94.1526ZM74.5959 95.7873L73.3249 96.5839C74.0128 97.6815 74.8175 98.6739 75.7387 99.5579L76.7772 98.4756L77.8158 97.3933C77.0761 96.6835 76.4266 95.8838 75.8669 94.9908L74.5959 95.7873ZM76.7772 98.4756L75.7387 99.5579C76.5898 100.375 77.4431 101.146 78.2986 101.873L79.2696 100.73L80.2405 99.5862C79.4337 98.9011 78.6255 98.1702 77.8158 97.3933L76.7772 98.4756ZM79.2696 100.73L78.2986 101.873C79.1378 102.585 80.0099 103.311 80.915 104.049L81.8631 102.887L82.8112 101.724C81.9205 100.998 81.0636 100.285 80.2405 99.5862L79.2696 100.73ZM81.8631 102.887L80.915 104.049C82.031 104.959 83.3235 105.515 84.7605 105.71L84.9625 104.223L85.1645 102.737C84.2649 102.615 83.4911 102.279 82.8112 101.724L81.8631 102.887ZM84.9625 104.223L84.7605 105.71C86.1531 105.899 87.5264 105.775 88.8636 105.339L88.3992 103.913L87.9347 102.487C87.0264 102.783 86.1086 102.865 85.1645 102.737L84.9625 104.223ZM88.3992 103.913L88.8636 105.339C90.158 104.918 91.3342 104.282 92.3828 103.433L91.4391 102.267L90.4954 101.101C89.7363 101.716 88.8859 102.177 87.9347 102.487L88.3992 103.913ZM91.4391 102.267L92.3828 103.433C93.3611 102.641 94.2637 101.757 95.0905 100.781L93.946 99.8111L92.8015 98.8415C92.0934 99.6773 91.3248 100.43 90.4954 101.101L91.4391 102.267ZM93.946 99.8111L95.0905 100.781C96.0853 99.6065 96.5989 98.2201 96.6097 96.6808L95.1098 96.6702L93.6098 96.6596C93.6039 97.4965 93.3416 98.204 92.8015 98.8415L93.946 99.8111ZM95.1098 96.6702L96.6097 96.6808C96.6179 95.5285 96.6671 94.4013 96.757 93.299L95.2619 93.1771L93.7669 93.0552C93.6707 94.2342 93.6185 95.4358 93.6098 96.6596L95.1098 96.6702ZM95.2619 93.1771L96.757 93.299C96.7989 92.7855 96.8642 92.4399 96.9296 92.2263C97.0045 91.9814 97.0328 92.0626 96.8729 92.1951L95.9161 91.0399L94.9592 89.8847C94.4563 90.3012 94.204 90.8807 94.0609 91.3483C93.9083 91.847 93.8181 92.428 93.7669 93.0552L95.2619 93.1771ZM95.9161 91.0399L96.8729 92.1951C96.7862 92.2669 96.6573 92.3486 96.4856 92.4008C96.3098 92.4542 96.1309 92.4637 95.9668 92.4387C95.6606 92.3921 95.5029 92.2438 95.4998 92.241C95.4862 92.2286 95.5257 92.2628 95.6115 92.392C95.6928 92.5144 95.7936 92.6885 95.9124 92.9254L97.2531 92.2526L98.5938 91.5798C98.3043 91.003 97.9545 90.4173 97.5154 90.0189C97.2894 89.814 96.9217 89.5496 96.4184 89.4729C95.8449 89.3856 95.3316 89.5762 94.9592 89.8847L95.9161 91.0399ZM97.2531 92.2526L95.9124 92.9254C96.628 94.3514 97.7581 95.3771 99.2466 95.9528L99.7877 94.5538L100.329 93.1548C99.5344 92.8475 98.9748 92.3391 98.5938 91.5798L97.2531 92.2526ZM99.7877 94.5538L99.2466 95.9528C100.381 96.3915 101.458 96.8185 102.478 97.2339L103.044 95.8446L103.609 94.4553C102.571 94.0326 101.478 93.5992 100.329 93.1548L99.7877 94.5538ZM103.044 95.8446L102.478 97.2339C103.696 97.7296 104.972 97.9678 106.294 97.9488L106.273 96.449L106.251 94.9491C105.327 94.9624 104.45 94.7976 103.609 94.4553L103.044 95.8446ZM106.273 96.449L106.294 97.9488C107.727 97.9283 109.042 97.4895 110.194 96.6424L109.306 95.4338L108.418 94.2252C107.772 94.6995 107.065 94.9375 106.251 94.9491L106.273 96.449ZM109.306 95.4338L110.194 96.6424C111.137 95.9496 112.031 95.2138 112.876 94.435L111.859 93.332L110.843 92.2291C110.081 92.9312 109.273 93.5966 108.418 94.2252L109.306 95.4338ZM111.859 93.332L112.876 94.435C113.801 93.5828 114.573 92.5933 115.194 91.4741L113.882 90.7466L112.571 90.0191C112.101 90.8663 111.525 91.6003 110.843 92.2291L111.859 93.332ZM113.882 90.7466L115.194 91.4741C115.89 90.2195 116.166 88.8522 116.026 87.4149L114.533 87.5606L113.04 87.7062C113.123 88.5508 112.965 89.3075 112.571 90.0191L113.882 90.7466ZM114.533 87.5606L116.026 87.4149C115.931 86.436 115.989 85.4188 116.213 84.3576L114.745 84.049L113.277 83.7404C112.995 85.0793 112.913 86.4032 113.04 87.7062L114.533 87.5606ZM114.745 84.049L116.213 84.3576C116.574 82.6402 116.077 81.0899 114.764 79.923L113.768 81.0443L112.771 82.1656C113.265 82.6047 113.42 83.0576 113.277 83.7404L114.745 84.049ZM113.768 81.0443L114.764 79.923C113.967 79.2149 113.286 78.4093 112.718 77.5028L111.447 78.2993L110.176 79.0959C110.895 80.2433 111.761 81.2677 112.771 82.1656L113.768 81.0443ZM111.447 78.2993L112.718 77.5028C111.844 76.1085 110.545 75.2496 108.92 74.9857L108.68 76.4663L108.439 77.9468C109.216 78.0731 109.762 78.4362 110.176 79.0959L111.447 78.2993ZM108.68 76.4663L108.92 74.9857C107.566 74.7656 106.222 74.76 104.895 74.9739L105.134 76.4548L105.373 77.9356C106.371 77.7746 107.391 77.7767 108.439 77.9468L108.68 76.4663ZM105.134 76.4548L104.895 74.9739C103.737 75.1606 102.931 75.2703 102.448 75.3125L102.579 76.8068L102.71 78.3011C103.308 78.2488 104.205 78.1238 105.373 77.9356L105.134 76.4548ZM102.579 76.8068L102.448 75.3125C102.475 75.3101 102.568 75.3039 102.699 75.3302C102.835 75.3574 103.047 75.4272 103.255 75.6034C103.742 76.0156 103.724 76.5505 103.705 76.6944C103.688 76.8302 103.652 76.8636 103.712 76.7455C103.761 76.6484 103.849 76.4999 103.992 76.2925L102.756 75.442L101.521 74.5916C101.334 74.8627 101.168 75.13 101.038 75.3858C100.918 75.6208 100.778 75.9444 100.73 76.3077C100.682 76.6789 100.71 77.3786 101.317 77.8927C101.84 78.3356 102.444 78.3243 102.71 78.3011L102.579 76.8068ZM102.756 75.442L103.992 76.2925C104.692 75.2752 105.316 74.2098 105.864 73.0968L104.518 72.4344L103.172 71.772C102.689 72.7551 102.138 73.6948 101.521 74.5916L102.756 75.442ZM104.518 72.4344L105.864 73.0968C106.36 72.0888 106.898 71.1102 107.476 70.161L106.196 69.3802L104.915 68.5993C104.289 69.6262 103.708 70.6839 103.172 71.772L104.518 72.4344ZM106.196 69.3802L107.476 70.161C108.058 69.207 108.678 68.275 109.338 67.3649L108.123 66.4849L106.908 65.6049C106.203 66.579 105.538 67.5772 104.915 68.5993L106.196 69.3802ZM108.123 66.4849L109.338 67.3649C110.053 66.3773 110.718 65.3433 111.332 64.2635L110.028 63.5221L108.724 62.7806C108.163 63.767 107.558 64.7082 106.908 65.6049L108.123 66.4849ZM110.028 63.5221L111.332 64.2635C111.975 63.1329 112.485 61.9427 112.863 60.6948L111.427 60.2605L109.991 59.8261C109.678 60.8608 109.256 61.845 108.724 62.7806L110.028 63.5221ZM111.427 60.2605L112.863 60.6948C113.257 59.3919 113.426 58.0535 113.371 56.6865L111.872 56.747L110.373 56.8075C110.415 57.8426 110.288 58.8464 109.991 59.8261L111.427 60.2605ZM111.872 56.747L113.371 56.6865C113.318 55.3664 113.109 54.0797 112.745 52.8293L111.305 53.2489L109.865 53.6685C110.16 54.6804 110.33 55.7257 110.373 56.8075L111.872 56.747ZM111.305 53.2489L112.745 52.8293C112.401 51.6474 111.999 50.4997 111.538 49.3867L110.152 49.9599L108.766 50.5331C109.184 51.5433 109.55 52.5882 109.865 53.6685L111.305 53.2489ZM110.152 49.9599L111.538 49.3867C111.091 48.3055 110.62 47.2305 110.124 46.1618L108.763 46.7931L107.403 47.4244C107.881 48.455 108.335 49.4913 108.766 50.5331L110.152 49.9599ZM108.763 46.7931L110.124 46.1618C109.569 44.9649 108.831 43.8746 107.916 42.8939L106.819 43.9167L105.722 44.9394C106.426 45.6946 106.984 46.5219 107.403 47.4244L108.763 46.7931ZM106.819 43.9167L107.916 42.8939C107.236 42.1639 106.722 41.3446 106.366 40.4284L104.967 40.9715L103.569 41.5146C104.064 42.7894 104.784 43.9336 105.722 44.9394L106.819 43.9167ZM104.967 40.9715L106.366 40.4284C105.874 39.1636 105.173 38.0238 104.266 37.0171L103.151 38.0213L102.037 39.0254C102.7 39.7612 103.209 40.5883 103.569 41.5146L104.967 40.9715ZM103.151 38.0213L104.266 37.0171C103.595 36.2727 103.065 35.436 102.675 34.5001L101.29 35.0779L99.9062 35.6557C100.426 36.9018 101.138 38.0273 102.037 39.0254L103.151 38.0213ZM101.29 35.0779L102.675 34.5001C102.197 33.3545 101.655 32.2472 101.05 31.1786L99.7445 31.9178L98.4393 32.6569C98.9846 33.6199 99.4736 34.6194 99.9062 35.6557L101.29 35.0779ZM99.7445 31.9178L101.05 31.1786C100.619 30.4182 100.639 29.9601 100.75 29.6599L99.3417 29.1424L97.9338 28.6249C97.4307 29.9937 97.7194 31.3858 98.4393 32.6569L99.7445 31.9178ZM99.3417 29.1424L100.75 29.6599C100.932 29.1637 101.33 28.6137 102.088 28.0375L101.181 26.8431L100.274 25.6486C99.1932 26.4693 98.3648 27.4522 97.9338 28.6249L99.3417 29.1424ZM101.181 26.8431L102.088 28.0375C103.153 27.2286 104.04 26.2551 104.74 25.1228L103.465 24.3335L102.189 23.5443C101.684 24.3612 101.048 25.0607 100.274 25.6486L101.181 26.8431ZM103.465 24.3335L104.74 25.1228C105.348 24.141 105.939 23.1673 106.513 22.2014L105.224 21.4343L103.935 20.6672C103.37 21.6178 102.788 22.5768 102.189 23.5443L103.465 24.3335ZM105.224 21.4343L106.513 22.2014C107.175 21.0895 107.629 19.8839 107.875 18.5938L106.402 18.3122L104.929 18.0306C104.746 18.9869 104.414 19.8627 103.935 20.6672L105.224 21.4343ZM106.402 18.3122L107.875 18.5938C108.128 17.2723 108.112 15.9443 107.83 14.6218L106.363 14.9344L104.896 15.2469C105.095 16.1818 105.105 17.1058 104.929 18.0306L106.402 18.3122ZM106.363 14.9344L107.83 14.6218C107.558 13.3435 107.1 12.1366 106.456 11.0065L105.153 11.7486L103.849 12.4908C104.339 13.3509 104.688 14.2678 104.896 15.2469L106.363 14.9344ZM105.153 11.7486L106.456 11.0065C105.873 9.98274 105.253 8.97234 104.597 7.97529L103.344 8.80049L102.091 9.6257C102.713 10.5693 103.299 11.5244 103.849 12.4908L105.153 11.7486ZM103.344 8.80049L104.597 7.97529C103.924 6.95426 103.186 5.96949 102.385 5.02102L101.239 5.98935L100.094 6.95768C100.82 7.81674 101.486 8.70606 102.091 9.6257L103.344 8.80049ZM101.239 5.98935L102.385 5.02102C101.445 3.90894 100.269 3.10627 98.8845 2.62332L98.3904 4.0396L97.8963 5.45588C98.7825 5.76508 99.5058 6.26225 100.094 6.95768L101.239 5.98935ZM98.3904 4.0396L98.8845 2.62332C97.7645 2.23258 96.6843 1.83532 95.6438 1.43161L95.1012 2.83004L94.5587 4.22846C95.6331 4.64535 96.7457 5.05447 97.8963 5.45588L98.3904 4.0396ZM95.1012 2.83004L95.6438 1.43161C94.4578 0.971419 93.2251 0.679013 91.9497 0.554101L91.8035 2.04696L91.6573 3.53981C92.664 3.63841 93.6298 3.86806 94.5587 4.22846L95.1012 2.83004ZM91.8035 2.04696L91.9497 0.554101C90.8365 0.44507 89.708 0.303118 88.5643 0.1281L88.3374 1.61084L88.1105 3.09358C89.3061 3.27654 90.4884 3.42533 91.6573 3.53981L91.8035 2.04696ZM88.3374 1.61084L88.5643 0.1281C87.2104 -0.0790645 85.8539 -0.034179 84.5039 0.25944L84.8227 1.72518L85.1414 3.19091C86.1383 2.97411 87.1249 2.94277 88.1105 3.09358L88.3374 1.61084ZM84.8227 1.72518L84.5039 0.25944C83.189 0.545407 81.9322 1.01535 80.7367 1.66584L81.4536 2.98342L82.1705 4.301C83.1202 3.78425 84.1094 3.41537 85.1414 3.19091L84.8227 1.72518ZM81.4536 2.98342L80.7367 1.66584C79.3777 2.40527 78.3592 3.49914 77.7116 4.90814L79.0745 5.53457L80.4374 6.16099C80.8168 5.3357 81.3843 4.72881 82.1705 4.301L81.4536 2.98342ZM79.0745 5.53457L77.7116 4.90814C77.2061 6.0079 76.7008 7.05163 76.1957 8.03962L77.5312 8.72244L78.8668 9.40526C79.3925 8.37705 79.916 7.29553 80.4374 6.16099L79.0745 5.53457ZM77.5312 8.72244L76.1957 8.03962C75.673 9.06185 75.1599 10.1056 74.6562 11.1707L76.0122 11.812L77.3683 12.4532C77.8591 11.4152 78.3586 10.3992 78.8668 9.40526L77.5312 8.72244ZM76.0122 11.812L74.6562 11.1707C74.0258 12.504 73.8376 13.917 74.1008 15.3656L75.5767 15.0975L77.0525 14.8294C76.9019 14.0005 77.0042 13.2231 77.3683 12.4532L76.0122 11.812ZM75.5767 15.0975L74.1008 15.3656C74.3201 16.5728 74.6215 17.7556 75.0049 18.9133L76.4288 18.4418L77.8528 17.9702C77.5137 16.9464 77.247 15.8997 77.0525 14.8294L75.5767 15.0975ZM76.4288 18.4418L75.0049 18.9133C75.0668 19.1003 75.0878 19.2247 75.0931 19.296C75.0983 19.3655 75.0868 19.3606 75.1034 19.3104C75.1229 19.2513 75.1625 19.1865 75.2141 19.1377C75.2596 19.0947 75.2795 19.097 75.228 19.1157L75.7408 20.5253L76.2536 21.9349C77.0023 21.6626 77.665 21.1204 77.9521 20.2511C78.2108 19.4677 78.0808 18.6586 77.8528 17.9702L76.4288 18.4418ZM75.7408 20.5253L75.228 19.1157C74.7921 19.2743 74.1612 19.3116 73.2416 19.0474L72.8275 20.4891L72.4133 21.9308C73.7384 22.3115 75.0497 22.3729 76.2536 21.9349L75.7408 20.5253ZM72.8275 20.4891L73.2416 19.0474C71.9571 18.6784 70.64 18.5304 69.2973 18.6026L69.3779 20.1004L69.4584 21.5983C70.4706 21.5439 71.4532 21.655 72.4133 21.9308L72.8275 20.4891ZM69.3779 20.1004L69.2973 18.6026C68.387 18.6515 67.4949 18.4701 66.6 18.0343L65.9433 19.3829L65.2866 20.7315C66.6162 21.379 68.0139 21.6759 69.4584 21.5983L69.3779 20.1004ZM65.9433 19.3829L66.6 18.0343C65.1243 17.3157 63.5635 17.2299 62.01 17.7711L62.5035 19.1876L62.9971 20.6041C63.8054 20.3225 64.5377 20.3668 65.2866 20.7315L65.9433 19.3829ZM62.5035 19.1876L62.01 17.7711C61.0573 18.1031 60.1509 18.1747 59.2656 18.014L58.9977 19.4899L58.7297 20.9658C60.1571 21.2249 61.5879 21.0951 62.9971 20.6041L62.5035 19.1876ZM58.9977 19.4899L59.2656 18.014C58.1109 17.8044 56.9532 17.5923 55.7927 17.3776L55.5199 18.8526L55.2471 20.3276C56.4108 20.5428 57.5717 20.7556 58.7297 20.9658L58.9977 19.4899ZM55.5199 18.8526L55.7927 17.3776C54.5063 17.1397 53.209 17.066 51.9038 17.1567L52.0078 18.6531L52.1118 20.1495C53.1651 20.0763 54.2091 20.1356 55.2471 20.3276L55.5199 18.8526ZM52.0078 18.6531L51.9038 17.1567C50.4977 17.2545 49.167 17.6582 47.9255 18.357L48.6613 19.6641L49.397 20.9713C50.2591 20.486 51.1594 20.2157 52.1118 20.1495L52.0078 18.6531ZM48.6613 19.6641L47.9255 18.357C46.9764 18.8912 46.0035 19.2931 45.0052 19.567L45.4021 21.0136L45.799 22.4601C47.0427 22.1189 48.2425 21.6211 49.397 20.9713L48.6613 19.6641ZM45.4021 21.0136L45.0052 19.567C43.7574 19.9094 42.5691 20.4098 41.4428 21.0659L42.1979 22.362L42.9529 23.6581C43.8569 23.1315 44.8047 22.7329 45.799 22.4601L45.4021 21.0136ZM42.1979 22.362L41.4428 21.0659C40.2776 21.7447 39.2581 22.6044 38.3896 23.6397L39.5388 24.6037L40.688 25.5677C41.3348 24.7967 42.0879 24.162 42.9529 23.6581L42.1979 22.362ZM39.5388 24.6037L38.3896 23.6397C38.0482 24.0467 37.8155 24.2537 37.6882 24.3406C37.6284 24.3815 37.6377 24.3639 37.71 24.3427C37.791 24.319 37.964 24.2884 38.1821 24.3467L37.7945 25.7958L37.4069 27.2448C38.2465 27.4694 38.9656 27.1013 39.3809 26.8175C39.8351 26.5071 40.2719 26.0638 40.688 25.5677L39.5388 24.6037ZM37.7945 25.7958L38.1821 24.3467C38.4474 24.4177 38.6319 24.5754 38.7334 24.7102C38.8192 24.8242 38.8295 24.8976 38.818 24.8527C38.8081 24.8143 38.7908 24.7218 38.7822 24.5562C38.7737 24.3943 38.7747 24.1869 38.79 23.9283L37.2926 23.8397L35.7952 23.7511C35.7567 24.4032 35.7709 25.0478 35.9121 25.5982C36.044 26.1125 36.4146 26.9794 37.4069 27.2448L37.7945 25.7958ZM37.2926 23.8397L38.79 23.9283C38.8741 22.5069 38.6435 21.1192 38.1078 19.78L36.7151 20.3371L35.3224 20.8941C35.6983 21.834 35.8526 22.7814 35.7952 23.7511L37.2926 23.8397ZM36.7151 20.3371L38.1078 19.78C37.599 18.5079 36.9249 17.3422 36.0851 16.2888L34.9122 17.2239L33.7393 18.1589C34.3918 18.9774 34.9196 19.8872 35.3224 20.8941L36.7151 20.3371ZM34.9122 17.2239L36.0851 16.2888C35.1993 15.1776 34.1141 14.3115 32.8406 13.7049L32.1956 15.0591L31.5505 16.4133C32.4069 16.8212 33.1329 17.3982 33.7393 18.1589L34.9122 17.2239ZM32.1956 15.0591L32.8406 13.7049C31.7508 13.1857 30.6641 12.705 29.5807 12.2629L29.0139 13.6517L28.4472 15.0405C29.476 15.4603 30.5104 15.9179 31.5505 16.4133L32.1956 15.0591ZM29.0139 13.6517L29.5807 12.2629C28.5558 11.8447 27.5075 11.3763 26.4356 10.8573L25.7819 12.2073L25.1282 13.5574C26.2533 14.1022 27.3597 14.5967 28.4472 15.0405L29.0139 13.6517ZM25.7819 12.2073L26.4356 10.8573C24.9626 10.1441 23.4116 10.0809 21.8863 10.6731L22.4292 12.0714L22.9721 13.4698C23.72 13.1794 24.4041 13.2068 25.1282 13.5574L25.7819 12.2073ZM22.4292 12.0714L21.8863 10.6731C20.7555 11.1122 19.6592 11.5297 18.5974 11.9257L19.1216 13.3312L19.6458 14.7366C20.7209 14.3356 21.8297 13.9133 22.9721 13.4698L22.4292 12.0714ZM19.1216 13.3312L18.5974 11.9257C17.6521 12.2783 16.8192 12.4443 16.0883 12.4606L16.1219 13.9603L16.1555 15.4599C17.2873 15.4345 18.4542 15.181 19.6458 14.7366L19.1216 13.3312ZM16.1219 13.9603L16.0883 12.4606C15.6077 12.4714 15.1083 12.5063 14.7056 12.6199C14.5384 12.6671 14.1351 12.7925 13.8067 13.1422C13.6141 13.3472 13.4315 13.648 13.3796 14.0366C13.3286 14.4186 13.4228 14.7432 13.5343 14.9708L14.8812 14.3105L16.2281 13.6503C16.3136 13.8247 16.3979 14.0992 16.3532 14.434C16.3075 14.7754 16.1474 15.032 15.9936 15.1959C15.8518 15.3468 15.7133 15.4237 15.6482 15.4559C15.5776 15.4909 15.529 15.5048 15.5207 15.5071C15.5076 15.5108 15.5483 15.4989 15.6732 15.4861C15.7901 15.4741 15.9488 15.4645 16.1555 15.4599L16.1219 13.9603ZM14.8812 14.3105L13.5343 14.9708C13.2707 14.433 13.4576 13.9794 13.5007 13.8863C13.5534 13.7723 13.5955 13.7421 13.5345 13.8097C13.423 13.9331 13.1756 14.1572 12.7291 14.495L13.6341 15.6912L14.5391 16.8875C15.0282 16.5174 15.4565 16.1575 15.7607 15.8206C15.9075 15.6581 16.0925 15.4288 16.2231 15.1465C16.3441 14.8852 16.5438 14.2944 16.2281 13.6503L14.8812 14.3105Z" fill="#2E2F2F"/>
<path d="M30.3457 43.6904L27.9153 48.1461V58.2727L29.1305 64.3486L34.3963 66.779L38.0418 65.9688L40.8773 64.3486L40.0672 62.7283L37.2317 61.9182L34.3963 61.5132L32.371 59.8929L33.5862 57.0575L35.6115 54.6271H38.852L42.4975 56.2473L44.9279 58.2727L46.5482 56.2473L45.738 50.5765V46.5258L44.1178 42.4752L41.6874 38.8297L36.4216 38.0195V40.0448L38.852 42.4752L40.0672 47.336L38.852 51.3866L34.3963 53.817L31.5608 52.1967V48.1461V45.3107L30.3457 43.6904Z" fill="#BADEFC"/>
<path d="M37.9208 38.7448L37.3099 37.3748L37.9208 38.7448ZM34.8409 40.0979L34.245 38.7214L34.8409 40.0979ZM30.3693 44.8204L29.0637 44.0818L30.3693 44.8204ZM28.2908 61.5579L26.9299 62.1889L28.2908 61.5579ZM32.8684 66.6904L32.0184 67.9263L32.8684 66.6904ZM39.0636 65.4243L38.3019 64.1321L39.0636 65.4243ZM44.4508 61.1579L45.6597 62.0459L44.4508 61.1579ZM46.3249 54.8046L44.9345 55.3676L46.3249 54.8046ZM46.3657 51.3328L44.9816 50.7547L46.3657 51.3328ZM44.0164 41.3278L42.569 41.7215L44.0164 41.3278ZM39.5797 49.4557L40.9445 50.0782L39.5797 49.4557ZM39.8037 46.178L41.242 45.7522L39.8037 46.178ZM38.616 43.2418L37.3026 43.9664L38.616 43.2418ZM32.4848 44.9782L33.9811 45.0834L32.4848 44.9782ZM41.7599 56.5284L41.0615 57.856L41.7599 56.5284ZM41.8482 61.143L41.5505 59.6729L41.8482 61.143ZM38.3491 61.5571L38.2918 60.0582L38.3491 61.5571ZM37.9208 38.7448L37.3099 37.3748C36.2959 37.8269 35.2743 38.2758 34.245 38.7214L34.8409 40.0979L35.4368 41.4745C36.476 41.0246 37.5076 40.5714 38.5316 40.1148L37.9208 38.7448ZM34.8409 40.0979L34.245 38.7214C32.9896 39.2648 31.9247 40.0726 31.0688 41.1339L32.2364 42.0755L33.4041 43.0171C33.9525 42.337 34.6239 41.8264 35.4368 41.4745L34.8409 40.0979ZM32.2364 42.0755L31.0688 41.1339C30.316 42.0674 29.6473 43.0502 29.0637 44.0818L30.3693 44.8204L31.6749 45.5589C32.1765 44.6721 32.7526 43.8249 33.4041 43.0171L32.2364 42.0755ZM30.3693 44.8204L29.0637 44.0818C28.506 45.0678 27.9634 46.0978 27.4358 47.1716L28.7821 47.8331L30.1284 48.4946C30.6319 47.4698 31.1475 46.4914 31.6749 45.5589L30.3693 44.8204ZM28.7821 47.8331L27.4358 47.1716C26.772 48.5226 26.5918 49.9654 26.8939 51.4456L28.3636 51.1456L29.8333 50.8457C29.6623 50.0076 29.7611 49.242 30.1284 48.4946L28.7821 47.8331ZM28.3636 51.1456L26.8939 51.4456C27.0781 52.348 27.0303 53.2469 26.7391 54.1666L28.1692 54.6193L29.5992 55.0721C30.0404 53.6785 30.1223 52.2616 29.8333 50.8457L28.3636 51.1456ZM28.1692 54.6193L26.7391 54.1666C26.3308 55.4561 26.1097 56.7709 26.0784 58.1073L27.578 58.1424L29.0775 58.1775C29.1021 57.1298 29.275 56.096 29.5992 55.0721L28.1692 54.6193ZM27.578 58.1424L26.0784 58.1073C26.0451 59.5297 26.3305 60.8961 26.9299 62.1889L28.2908 61.5579L29.6516 60.9269C29.2448 60.0497 29.055 59.139 29.0775 58.1775L27.578 58.1424ZM28.2908 61.5579L26.9299 62.1889C27.4988 63.4158 28.2373 64.5135 29.1464 65.4733L30.2354 64.4417L31.3244 63.4102C30.6469 62.6949 30.0889 61.87 29.6516 60.9269L28.2908 61.5579ZM30.2354 64.4417L29.1464 65.4733C30.0129 66.388 30.9709 67.2059 32.0184 67.9263L32.8684 66.6904L33.7184 65.4544C32.8419 64.8517 32.0446 64.1705 31.3244 63.4102L30.2354 64.4417ZM32.8684 66.6904L32.0184 67.9263C33.4102 68.8834 34.9788 69.0291 36.533 68.3707L35.948 66.9895L35.3629 65.6083C34.7351 65.8742 34.2507 65.8205 33.7184 65.4544L32.8684 66.6904ZM35.948 66.9895L36.533 68.3707C37.6827 67.8837 38.7805 67.3325 39.8254 66.7165L39.0636 65.4243L38.3019 64.1321C37.3746 64.6788 36.3952 65.171 35.3629 65.6083L35.948 66.9895ZM39.0636 65.4243L39.8254 66.7165C40.843 66.1166 41.8451 65.4757 42.8317 64.794L41.979 63.56L41.1264 62.3259C40.198 62.9674 39.2565 63.5694 38.3019 64.1321L39.0636 65.4243ZM41.979 63.56L42.8317 64.794C43.9266 64.0375 44.8708 63.1198 45.6597 62.0459L44.4508 61.1579L43.2419 60.2699C42.65 61.0756 41.9464 61.7593 41.1264 62.3259L41.979 63.56ZM44.4508 61.1579L45.6597 62.0459C46.4077 61.0276 47.0569 59.937 47.6077 58.7759L46.2524 58.1331L44.8972 57.4902C44.4264 58.4827 43.8745 59.4087 43.2419 60.2699L44.4508 61.1579ZM46.2524 58.1331L47.6077 58.7759C48.3052 57.3055 48.3292 55.758 47.7152 54.2417L46.3249 54.8046L44.9345 55.3676C45.2455 56.1356 45.2212 56.8071 44.8972 57.4902L46.2524 58.1331ZM46.3249 54.8046L47.7152 54.2417C47.4061 53.4783 47.4072 52.7313 47.7498 51.9109L46.3657 51.3328L44.9816 50.7547C44.3449 52.2791 44.3187 53.8466 44.9345 55.3676L46.3249 54.8046ZM46.3657 51.3328L47.7498 51.9109C48.3247 50.5345 48.5705 49.1156 48.464 47.6713L46.9681 47.7815L45.4721 47.8918C45.5419 48.8377 45.386 49.7863 44.9816 50.7547L46.3657 51.3328ZM46.9681 47.7815L48.464 47.6713C48.3527 46.1609 47.7987 44.7949 46.8338 43.6067L45.6694 44.5524L44.505 45.498C45.0955 46.2251 45.4073 47.0119 45.4721 47.8918L46.9681 47.7815ZM45.6694 44.5524L46.8338 43.6067C46.188 42.8116 45.7333 41.9248 45.4638 40.934L44.0164 41.3278L42.569 41.7215C42.9481 43.115 43.5953 44.3779 44.505 45.498L45.6694 44.5524ZM44.0164 41.3278L45.4638 40.934C45.0074 39.2561 43.8927 38.0826 42.2243 37.5875L41.7976 39.0256L41.3709 40.4636C42.0124 40.654 42.3769 41.0152 42.569 41.7215L44.0164 41.3278ZM41.7976 39.0256L42.2243 37.5875C41.6591 37.4198 41.232 37.2821 40.9316 37.1735C40.781 37.119 40.6775 37.0772 40.612 37.048C40.5273 37.0101 40.5618 37.0177 40.6401 37.0747L39.7572 38.2873L38.8744 39.5C39.1757 39.7194 39.5983 39.8814 39.9109 39.9945C40.2907 40.1319 40.7811 40.2886 41.3709 40.4636L41.7976 39.0256ZM39.7572 38.2873L40.6401 37.0747C40.2161 36.766 39.7634 36.731 39.5214 36.7319C39.2525 36.7329 38.9956 36.7808 38.7816 36.8341C38.3495 36.9417 37.8486 37.1346 37.3099 37.3748L37.9208 38.7448L38.5316 40.1148C39.012 39.9006 39.3267 39.79 39.5067 39.7452C39.5988 39.7222 39.5972 39.7316 39.5326 39.7319C39.4967 39.732 39.4168 39.7295 39.3099 39.7037C39.2019 39.6777 39.0418 39.6219 38.8744 39.5L39.7572 38.2873ZM34.1548 52.2544L34.5128 53.711C35.5818 53.4483 36.6387 53.1792 37.6834 52.9037L37.3009 51.4532L36.9184 50.0028C35.8903 50.274 34.8498 50.5389 33.7968 50.7977L34.1548 52.2544ZM37.3009 51.4532L37.6834 52.9037C39.1955 52.5049 40.2931 51.5061 40.9445 50.0782L39.5797 49.4557L38.215 48.8332C37.9008 49.5221 37.4792 49.8549 36.9184 50.0028L37.3009 51.4532ZM39.5797 49.4557L40.9445 50.0782C41.5791 48.6871 41.677 47.222 41.242 45.7522L39.8037 46.178L38.3654 46.6037C38.5973 47.3875 38.546 48.1076 38.215 48.8332L39.5797 49.4557ZM39.8037 46.178L41.242 45.7522C40.8847 44.5451 40.4506 43.462 39.9293 42.5172L38.616 43.2418L37.3026 43.9664C37.6979 44.6829 38.0556 45.5572 38.3654 46.6037L39.8037 46.178ZM38.616 43.2418L39.9293 42.5172C39.2322 41.2536 38.0941 40.505 36.662 40.3475L36.498 41.8385L36.334 43.3295C36.8093 43.3818 37.0832 43.5687 37.3026 43.9664L38.616 43.2418ZM36.498 41.8385L36.662 40.3475C35.3531 40.2035 34.1181 40.51 33.0128 41.2346L33.8352 42.489L34.6576 43.7435C35.1954 43.3909 35.7356 43.2637 36.334 43.3295L36.498 41.8385ZM33.8352 42.489L33.0128 41.2346C31.7396 42.0693 31.0947 43.3613 30.9885 44.873L32.4848 44.9782L33.9811 45.0834C34.0324 44.3533 34.2879 43.9859 34.6576 43.7435L33.8352 42.489ZM32.4848 44.9782L30.9885 44.873C30.9228 45.8067 30.686 46.737 30.2651 47.67L31.6324 48.2868L32.9997 48.9037C33.5577 47.6669 33.8891 46.3913 33.9811 45.0834L32.4848 44.9782ZM31.6324 48.2868L30.2651 47.67C29.6052 49.1325 29.5871 50.6466 30.2988 52.077L31.6418 51.4089L32.9847 50.7407C32.7049 50.1783 32.6806 49.611 32.9997 48.9037L31.6324 48.2868ZM31.6418 51.4089L30.2988 52.077C30.5499 52.5818 30.7669 52.9929 30.941 53.2784C31.0174 53.4037 31.1353 53.589 31.2808 53.7485C31.3289 53.8012 31.5246 54.0188 31.8459 54.1579C32.0274 54.2365 32.3616 54.3386 32.7717 54.2516C33.219 54.1568 33.5295 53.8865 33.7092 53.6261L32.4743 52.7745L31.2395 51.9229C31.4117 51.6732 31.7132 51.4094 32.1496 51.3169C32.5489 51.2322 32.8705 51.3324 33.0378 51.4048C33.3306 51.5316 33.491 51.7199 33.497 51.7265C33.5584 51.7937 33.5648 51.819 33.5024 51.7167C33.399 51.5471 33.2293 51.2324 32.9847 50.7407L31.6418 51.4089ZM32.4743 52.7745L33.7092 53.6261C33.5985 53.7865 33.482 53.886 33.4248 53.9315C33.3603 53.9828 33.3061 54.0161 33.277 54.0332C33.2454 54.0516 33.2217 54.0634 33.2103 54.0688C33.2039 54.0719 33.1992 54.0741 33.1963 54.0753C33.1949 54.076 33.1938 54.0764 33.1931 54.0767C33.1928 54.0769 33.1925 54.077 33.1923 54.0771C33.1922 54.0772 33.1921 54.0772 33.1921 54.0772C33.1921 54.0772 33.1921 54.0772 33.1923 54.0771C33.1925 54.077 33.1927 54.0769 33.193 54.0768C33.1937 54.0765 33.1946 54.0762 33.1959 54.0757C33.1984 54.0747 33.2019 54.0733 33.2066 54.0715C33.2161 54.0679 33.229 54.0632 33.2459 54.0574C33.2799 54.0455 33.3249 54.0307 33.3824 54.0129C33.6198 53.9394 33.9911 53.8392 34.5128 53.711L34.1548 52.2544L33.7968 50.7977C33.2575 50.9302 32.8183 51.0471 32.4954 51.147C32.3378 51.1958 32.1762 51.2502 32.0334 51.31C31.9638 51.3391 31.866 51.383 31.7632 51.4431C31.7081 51.4753 31.4453 51.6245 31.2395 51.9229L32.4743 52.7745ZM35.4995 56.2508L36.5349 57.3361C37.0486 56.8461 37.5667 56.7023 38.2618 56.859L38.5917 55.3957L38.9215 53.9325C37.2484 53.5553 35.7051 53.9816 34.4641 55.1655L35.4995 56.2508ZM38.5917 55.3957L38.2618 56.859C39.3373 57.1015 40.2664 57.4377 41.0615 57.856L41.7599 56.5284L42.4582 55.2009C41.3973 54.6428 40.2142 54.2239 38.9215 53.9325L38.5917 55.3957ZM41.7599 56.5284L41.0615 57.856C41.4868 58.0797 41.776 58.4373 41.8625 59.1986L43.3529 59.0291L44.8433 58.8597C44.6618 57.2631 43.889 55.9536 42.4582 55.2009L41.7599 56.5284ZM43.3529 59.0291L41.8625 59.1986C41.9034 59.558 41.8228 59.6175 41.8553 59.572C41.8917 59.5207 41.876 59.607 41.5505 59.6729L41.8482 61.143L42.146 62.6132C42.9577 62.4488 43.7613 62.0675 44.2993 61.3117C44.8333 60.5615 44.9365 59.6793 44.8433 58.8597L43.3529 59.0291ZM41.8482 61.143L41.5505 59.6729C40.495 59.8867 39.4091 60.0155 38.2918 60.0582L38.3491 61.5571L38.4064 63.056C39.6803 63.0073 40.9272 62.8601 42.146 62.6132L41.8482 61.143ZM38.3491 61.5571L38.2918 60.0582C37.1789 60.1007 36.3624 60.0201 35.7942 59.8671L35.4042 61.3155L35.0141 62.7639C35.9812 63.0244 37.128 63.1048 38.4064 63.056L38.3491 61.5571ZM35.4042 61.3155L35.7942 59.8671C35.7445 59.8537 35.7316 59.8428 35.7382 59.8473C35.741 59.8491 35.7453 59.8525 35.7499 59.8571C35.7521 59.8593 35.7538 59.8612 35.7552 59.8628C35.7565 59.8643 35.7571 59.8652 35.757 59.8652C35.757 59.8651 35.7561 59.8638 35.7545 59.8611C35.753 59.8583 35.7506 59.8539 35.7477 59.8475C35.7417 59.8347 35.7333 59.8137 35.7241 59.7823C35.7055 59.7184 35.6859 59.6171 35.6785 59.468L34.1803 59.542L32.6821 59.6161C32.7153 60.2857 32.8781 60.9752 33.2879 61.5691C33.7158 62.1891 34.3263 62.5787 35.0141 62.7639L35.4042 61.3155ZM34.1803 59.542L35.6785 59.468C35.6547 58.9865 35.6405 58.6135 35.6352 58.3433C35.6325 58.2079 35.6322 58.1068 35.6335 58.0356C35.635 57.951 35.6382 57.9486 35.6328 57.9888L34.1458 57.7924L32.6587 57.596C32.6287 57.823 32.6304 58.131 32.6358 58.4025C32.642 58.7155 32.6577 59.1219 32.6821 59.6161L34.1803 59.542ZM34.1458 57.7924L35.6328 57.9888C35.6065 58.1879 35.5433 58.3222 35.5248 58.3603C35.5003 58.4108 35.4826 58.4356 35.4872 58.4289C35.4968 58.4146 35.5373 58.3595 35.6302 58.2537C35.8127 58.0459 36.1079 57.7435 36.5349 57.3361L35.4995 56.2508L34.4641 55.1655C34.0138 55.595 33.6448 55.9681 33.376 56.2741C33.2433 56.4253 33.1114 56.5867 33.0019 56.7486C32.9331 56.8503 32.7148 57.1712 32.6587 57.596L34.1458 57.7924Z" fill="#2E2F2F"/>
<path d="M70.852 42.8799L68.4216 47.3355V57.4621L69.6368 63.538L74.9026 65.9684L78.5482 65.1583L81.3836 63.538L80.5735 61.9178L77.7381 61.1077H74.9026L72.8773 59.0824L74.0925 56.2469L76.5229 54.2216L79.3583 53.8165L83.0039 55.4368L85.4343 57.4621L87.0545 55.4368L86.2444 49.7659V45.7153L84.6241 41.6647L82.1938 38.0191L76.9279 37.209V39.2343L79.3583 41.6647L80.5735 46.5254L79.3583 50.576L74.9026 53.0064L72.0672 51.3862V47.3355V44.5001L70.852 42.8799Z" fill="#BADEFC"/>
<path d="M78.3005 37.6507L77.9498 36.1923L78.3005 37.6507ZM75.1432 38.8978L74.405 37.592L75.1432 38.8978ZM68.5372 53.8638L67.129 54.3805L68.5372 53.8638ZM76.4692 65.9182L76.0685 64.4727L76.4692 65.9182ZM79.5202 64.5368L80.3378 65.7943L79.5202 64.5368ZM87.2384 46.9852L88.7354 46.8902L87.2384 46.9852ZM81.974 38.1568L80.7956 39.0849L81.974 38.1568ZM80.1491 45.4546L78.7223 44.9918L80.1491 45.4546ZM79.5752 42.4479L78.4605 43.4516L79.5752 42.4479ZM76.8481 40.3629L76.1598 41.6957L76.8481 40.3629ZM72.1449 50.3317L73.2562 49.3241L72.1449 50.3317ZM76.1267 56.0209L75.489 54.6632L76.1267 56.0209ZM82.3126 55.6775L81.6356 57.016L82.3126 55.6775ZM83.905 58.196L85.3992 58.0639L83.905 58.196ZM82.3576 60.4847L82.7759 61.9252L82.3576 60.4847ZM75.9062 61.2204L75.159 62.521L75.9062 61.2204ZM74.4756 56.8958L75.4993 57.9921L74.4756 56.8958ZM78.3005 37.6507L77.9498 36.1923C76.7089 36.4907 75.5262 36.9583 74.405 37.592L75.1432 38.8978L75.8813 40.2036C76.763 39.7053 77.6852 39.3414 78.6512 39.1091L78.3005 37.6507ZM75.1432 38.8978L74.405 37.592C73.2547 38.2423 72.2451 39.0678 71.3828 40.0644L72.5172 41.0459L73.6515 42.0273C74.2878 41.292 75.0289 40.6855 75.8813 40.2036L75.1432 38.8978ZM72.5172 41.0459L71.3828 40.0644C70.5885 40.9825 69.8594 41.9525 69.1958 42.9742L70.4536 43.7913L71.7115 44.6084C72.3007 43.7014 72.9474 42.8412 73.6515 42.0273L72.5172 41.0459ZM70.4536 43.7913L69.1958 42.9742C68.5157 44.0209 67.9343 45.1401 67.4504 46.3293L68.8398 46.8946L70.2291 47.46C70.6442 46.4401 71.1386 45.4903 71.7115 44.6084L70.4536 43.7913ZM68.8398 46.8946L67.4504 46.3293C66.9423 47.5779 66.6366 48.8767 66.5349 50.2201L68.0306 50.3334L69.5263 50.4467C69.6045 49.4142 69.8383 48.4204 70.2291 47.46L68.8398 46.8946ZM68.0306 50.3334L66.5349 50.2201C66.428 51.6309 66.6306 53.0222 67.129 54.3805L68.5372 53.8638L69.9454 53.3472C69.5883 52.3741 69.4532 51.4117 69.5263 50.4467L68.0306 50.3334ZM68.5372 53.8638L67.129 54.3805C67.5029 55.3998 67.677 56.3601 67.675 57.2694L69.175 57.2728L70.675 57.2762C70.6779 55.9716 70.4268 54.6593 69.9454 53.3472L68.5372 53.8638ZM69.175 57.2728L67.675 57.2694C67.6725 58.3583 67.65 59.519 67.6073 60.7519L69.1064 60.8039L70.6055 60.8559C70.6492 59.5946 70.6724 58.4013 70.675 57.2762L69.175 57.2728ZM69.1064 60.8039L67.6073 60.7519C67.5489 62.4348 68.1603 63.8958 69.4291 64.9946L70.411 63.8606L71.393 62.7267C70.8357 62.2441 70.5773 61.6673 70.6055 60.8559L69.1064 60.8039ZM70.411 63.8606L69.4291 64.9946C70.4492 65.878 71.5481 66.5792 72.7261 67.0847L73.3176 65.7062L73.9091 64.3278C73.0377 63.9538 72.1989 63.4247 71.393 62.7267L70.411 63.8606ZM73.3176 65.7062L72.7261 67.0847C74.0649 67.6591 75.4654 67.753 76.8699 67.3637L76.4692 65.9182L76.0685 64.4727C75.3203 64.6801 74.6197 64.6327 73.9091 64.3278L73.3176 65.7062ZM76.4692 65.9182L76.8699 67.3637C78.0974 67.0235 79.2546 66.4986 80.3378 65.7943L79.5202 64.5368L78.7026 63.2792C77.8706 63.8202 76.9938 64.2163 76.0685 64.4727L76.4692 65.9182ZM79.5202 64.5368L80.3378 65.7943C81.3719 65.1221 82.3184 64.3732 83.1746 63.5468L82.1328 62.4675L81.0911 61.3883C80.379 62.0756 79.5838 62.7063 78.7026 63.2792L79.5202 64.5368ZM82.1328 62.4675L83.1746 63.5468C84.066 62.6863 84.8312 61.694 85.4727 60.5778L84.1721 59.8304L82.8716 59.0829C82.3622 59.9692 81.7679 60.735 81.0911 61.3883L82.1328 62.4675ZM84.1721 59.8304L85.4727 60.5778C86.0064 59.6491 86.614 58.7706 87.296 57.9418L86.1377 56.9887L84.9795 56.0356C84.1915 56.9932 83.4888 58.0092 82.8716 59.0829L84.1721 59.8304ZM86.1377 56.9887L87.296 57.9418C88.2935 56.7295 88.7066 55.2972 88.5 53.7423L87.0131 53.9399L85.5262 54.1375C85.6223 54.8613 85.4519 55.4614 84.9795 56.0356L86.1377 56.9887ZM87.0131 53.9399L88.5 53.7423C88.3684 52.7517 88.3838 51.7508 88.549 50.7351L87.0685 50.4943L85.5879 50.2535C85.3765 51.5532 85.355 52.8495 85.5262 54.1375L87.0131 53.9399ZM87.0685 50.4943L88.549 50.7351C88.7556 49.4653 88.8175 48.1829 88.7354 46.8902L87.2384 46.9852L85.7414 47.0803C85.8094 48.1507 85.758 49.2077 85.5879 50.2535L87.0685 50.4943ZM87.2384 46.9852L88.7354 46.8902C88.6545 45.6163 88.4559 44.3413 88.1414 43.066L86.685 43.4251L85.2286 43.7843C85.502 44.8926 85.6723 45.9909 85.7414 47.0803L87.2384 46.9852ZM86.685 43.4251L88.1414 43.066C87.755 41.4991 86.8552 40.2459 85.4976 39.3652L84.6813 40.6236L83.865 41.882C84.5912 42.3531 85.0272 42.9675 85.2286 43.7843L86.685 43.4251ZM84.6813 40.6236L85.4976 39.3652C84.5926 38.7782 83.8128 38.0672 83.1525 37.2287L81.974 38.1568L80.7956 39.0849C81.661 40.1837 82.6861 41.1173 83.865 41.882L84.6813 40.6236ZM81.974 38.1568L83.1525 37.2287C82.7474 36.7144 82.3274 36.2493 81.9029 35.9329C81.6922 35.7759 81.395 35.5901 81.028 35.496C80.6245 35.3925 80.0932 35.395 79.5949 35.708L80.3927 36.9782L81.1905 38.2485C81.0308 38.3487 80.8541 38.4079 80.679 38.4274C80.5106 38.4461 80.3734 38.4252 80.2828 38.4019C80.1204 38.3603 80.0573 38.299 80.1102 38.3383C80.2128 38.4149 80.4378 38.6305 80.7956 39.0849L81.974 38.1568ZM80.3927 36.9782L79.5949 35.708C79.6185 35.6932 79.5243 35.7487 79.1922 35.8555C78.8929 35.9517 78.4825 36.0642 77.9498 36.1923L78.3005 37.6507L78.6512 39.1091C79.222 38.9719 79.712 38.8396 80.1102 38.7116C80.4754 38.5942 80.8756 38.4462 81.1905 38.2485L80.3927 36.9782ZM74.7622 51.8919L74.7117 53.3911C76.117 53.4384 77.4468 53.1108 78.6713 52.4169L77.9317 51.1119L77.1922 49.8069C76.4473 50.229 75.6641 50.4214 74.8127 50.3927L74.7622 51.8919ZM77.9317 51.1119L78.6713 52.4169C80.0462 51.6377 80.9032 50.4143 80.994 48.8209L79.4964 48.7356L77.9988 48.6503C77.9727 49.1093 77.7866 49.47 77.1922 49.8069L77.9317 51.1119ZM79.4964 48.7356L80.994 48.8209C81.0439 47.9445 81.2317 46.9785 81.5759 45.9174L80.1491 45.4546L78.7223 44.9918C78.3131 46.2531 78.0658 47.4745 77.9988 48.6503L79.4964 48.7356ZM80.1491 45.4546L81.5759 45.9174C82.1025 44.2939 81.8395 42.7211 80.6899 41.4443L79.5752 42.4479L78.4605 43.4516C78.8293 43.8613 78.9489 44.2929 78.7223 44.9918L80.1491 45.4546ZM79.5752 42.4479L80.6899 41.4443C79.8035 40.4598 78.7478 39.6558 77.5363 39.0301L76.8481 40.3629L76.1598 41.6957C77.066 42.1636 77.8284 42.7496 78.4605 43.4516L79.5752 42.4479ZM76.8481 40.3629L77.5363 39.0301C76.7678 38.6332 75.9153 38.4514 75.0329 38.6243C74.1641 38.7946 73.4349 39.2757 72.837 39.897L73.9178 40.9371L74.9986 41.9772C75.2953 41.6689 75.5019 41.5895 75.6098 41.5683C75.7042 41.5498 75.8695 41.5457 76.1598 41.6957L76.8481 40.3629ZM73.9178 40.9371L72.837 39.897C71.6861 41.0929 71.0857 42.5382 71.1848 44.1675L72.6821 44.0764L74.1793 43.9853C74.1369 43.2881 74.3602 42.6406 74.9986 41.9772L73.9178 40.9371ZM72.6821 44.0764L71.1848 44.1675C71.2376 45.0351 71.0506 45.8886 70.5872 46.754L71.9096 47.4621L73.2319 48.1702C73.9401 46.8478 74.2681 45.4441 74.1793 43.9853L72.6821 44.0764ZM71.9096 47.4621L70.5872 46.754C70.1974 47.4819 69.9652 48.2833 70.0341 49.1226C70.1043 49.9787 70.4757 50.7238 71.0337 51.3392L72.1449 50.3317L73.2562 49.3241C73.0714 49.1204 73.0323 48.9777 73.024 48.8773C73.0144 48.76 73.0359 48.5363 73.2319 48.1702L71.9096 47.4621ZM72.1449 50.3317L71.0337 51.3392C71.3969 51.7398 71.6287 52.0159 71.7547 52.1847C71.8237 52.2771 71.8221 52.2862 71.7977 52.238C71.7882 52.2194 71.7337 52.1127 71.7 51.9492C71.6822 51.8631 71.6611 51.7181 71.6779 51.5373C71.6953 51.3501 71.7568 51.0965 71.9295 50.8461L73.1643 51.6977L74.3991 52.5492C74.755 52.0332 74.6725 51.5097 74.6382 51.3434C74.5951 51.1342 74.5186 50.9706 74.4745 50.8836C74.381 50.6987 74.2598 50.5256 74.1589 50.3904C73.9451 50.1039 73.6356 49.7427 73.2562 49.3241L72.1449 50.3317ZM73.1643 51.6977L71.9295 50.8461C71.7702 51.0771 71.6128 51.4481 71.6718 51.9061C71.7282 52.3446 71.9552 52.6404 72.1142 52.7976C72.3854 53.0657 72.6901 53.1629 72.755 53.1845C72.9664 53.2549 73.1903 53.2862 73.3354 53.3039C73.6705 53.3446 74.1405 53.3718 74.7117 53.3911L74.7622 51.8919L74.8127 50.3927C74.2555 50.374 73.8951 50.3498 73.6975 50.3258C73.5763 50.3111 73.6083 50.3067 73.7024 50.338C73.7086 50.3401 73.9732 50.417 74.223 50.6638C74.3713 50.8104 74.5921 51.0954 74.6472 51.5229C74.7048 51.9699 74.5506 52.3296 74.3991 52.5492L73.1643 51.6977ZM76.1267 56.0209L76.7643 57.3786C77.5693 57.0006 78.4442 56.752 79.398 56.6387L79.221 55.1492L79.0441 53.6597C77.7877 53.809 76.5997 54.1415 75.489 54.6632L76.1267 56.0209ZM79.221 55.1492L79.398 56.6387C80.2219 56.5409 80.9539 56.6712 81.6356 57.016L82.3126 55.6775L82.9896 54.3389C81.7594 53.7168 80.4304 53.495 79.0441 53.6597L79.221 55.1492ZM82.3126 55.6775L81.6356 57.016C82.0665 57.2339 82.3443 57.575 82.4109 58.3281L83.905 58.196L85.3992 58.0639C85.2544 56.4259 84.4706 55.088 82.9896 54.3389L82.3126 55.6775ZM83.905 58.196L82.4109 58.3281C82.4427 58.6878 82.3678 58.8055 82.3548 58.8247C82.3436 58.8413 82.2695 58.9483 81.9393 59.0442L82.3576 60.4847L82.7759 61.9252C83.583 61.6908 84.3355 61.2513 84.8401 60.505C85.3429 59.7612 85.4731 58.8998 85.3992 58.0639L83.905 58.196ZM82.3576 60.4847L81.9393 59.0442C80.7845 59.3796 79.6522 59.7312 78.5425 60.099L79.0144 61.5228L79.4864 62.9466C80.5595 62.5909 81.656 62.2504 82.7759 61.9252L82.3576 60.4847ZM79.0144 61.5228L78.5425 60.099C77.8487 60.3289 77.2568 60.2664 76.6534 59.9197L75.9062 61.2204L75.159 62.521C76.517 63.3012 77.9972 63.4402 79.4864 62.9466L79.0144 61.5228ZM75.9062 61.2204L76.6534 59.9197C76.0961 59.5996 75.876 59.2212 75.8461 58.6562L74.3482 58.7355L72.8503 58.8149C72.9362 60.4362 73.7548 61.7143 75.159 62.521L75.9062 61.2204ZM74.3482 58.7355L75.8461 58.6562C75.8183 58.1314 75.818 57.7756 75.833 57.5594C75.8407 57.4481 75.8495 57.4213 75.8431 57.4471C75.8395 57.4615 75.8246 57.5196 75.787 57.6005C75.7525 57.6746 75.6691 57.8336 75.4993 57.9921L74.4756 56.8958L73.4519 55.7994C73.0812 56.1455 72.9683 56.576 72.9315 56.7244C72.8787 56.937 72.8537 57.1568 72.8402 57.3521C72.8127 57.7492 72.8202 58.2465 72.8503 58.8149L74.3482 58.7355ZM74.4756 56.8958L75.4993 57.9921C75.4186 58.0675 75.3711 58.089 75.4432 58.0448C75.493 58.0143 75.5751 57.9675 75.6978 57.9024C75.9421 57.773 76.2944 57.5993 76.7643 57.3786L76.1267 56.0209L75.489 54.6632C75.001 54.8923 74.5993 55.0894 74.2932 55.2516C74.0567 55.3769 73.6953 55.5721 73.4519 55.7994L74.4756 56.8958Z" fill="#2E2F2F"/>
<path d="M48.9785 68.8043L54.6494 65.1587L60.7253 67.184V78.9308L54.6494 76.5004L48.9785 78.9308V76.5004V68.8043Z" fill="#2E2F2F"/>
<path d="M55.4597 77.3105L50.1938 79.7409L51.409 85.0067L55.4597 87.4371L59.1052 85.8169L60.7255 79.7409L55.4597 77.3105Z" fill="#F68E5F"/>
<path d="M49.4669 68.7496L50.3608 70.101L50.4116 70.0674L50.4597 70.03L49.4669 68.7496ZM52.6563 67.0467L52.9665 68.637L52.6563 67.0467ZM56.16 64.5633L54.8779 65.5539L56.16 64.5633ZM59.8451 67.6562L59.8858 66.0364L59.8451 67.6562ZM61.1119 67.6386L62.629 68.2075L62.981 67.2688L62.2981 66.5348L61.1119 67.6386ZM61.0358 67.5568L61.5679 66.0264L59.8497 68.6605L61.0358 67.5568ZM49.2927 68.7629L49.9717 67.2918L49.4052 67.0303L48.8097 67.2163L49.2927 68.7629ZM44.1947 66.3359L43.4701 64.8867L42.394 65.4248L42.5978 66.6104L44.1947 66.3359ZM44.2085 66.4163L43.5295 67.8874L46.3273 69.1787L45.8053 66.1419L44.2085 66.4163ZM44.7967 64.9033C43.9842 64.5283 43.0215 64.883 42.6466 65.6954C42.2716 66.5079 42.6262 67.4706 43.4387 67.8455L44.1177 66.3744L44.7967 64.9033ZM49.3857 68.9048L50.9825 69.1791L51.009 69.0253L51.0055 68.8693L49.3857 68.9048ZM48.9533 72.4017L47.3339 72.351L48.9533 72.4017ZM49.8179 77.2227L48.2256 76.923L49.8179 77.2227ZM49.5512 81.9761L47.9709 82.3339L49.5512 81.9761ZM50.2184 84.3574L51.7557 83.8456L50.2184 84.3574ZM51.8076 86.0517L52.4265 84.5544L51.8076 86.0517ZM58.8877 87.0874L58.086 85.6794L58.8877 87.0874ZM60.8674 78.0552L59.2473 78.0381L60.8674 78.0552ZM61.0102 73.2304L59.4458 72.8086L61.0102 73.2304ZM60.7944 67.5896L61.2529 66.0356L61.0284 65.9694H60.7944V67.5896ZM61.1331 67.6896L60.6746 69.2436L62.8154 69.8753L62.7527 67.644L61.1331 67.6896ZM61.1972 67.5153L61.184 65.8951L60.4703 65.9009L59.9929 66.4314L61.1972 67.5153ZM64.5947 64.5047L66.2096 64.6362L64.5947 64.5047ZM64.73 63.4733L66.3323 63.7134L66.428 63.0746L66.058 62.5451L64.73 63.4733ZM64.709 63.6133L63.1066 63.3732L62.3078 68.7033L65.9133 64.6972L64.709 63.6133ZM65.9802 64.6229C66.5788 63.9577 66.5249 62.9333 65.8598 62.3347C65.1946 61.736 64.1702 61.79 63.5715 62.4551L64.7759 63.539L65.9802 64.6229ZM49.3768 77.7162C48.4819 77.7199 47.7595 78.4483 47.7633 79.3431C47.767 80.238 48.4954 80.9604 49.3902 80.9567L49.3835 79.3364L49.3768 77.7162ZM49.4835 79.336L49.4902 80.9562L49.7896 80.955L50.0688 80.8468L49.4835 79.336ZM52.678 77.9554L51.924 76.5213L52.678 77.9554ZM54.842 77.2759L55.0358 78.8845L54.842 77.2759ZM59.3958 78.1724L58.4696 79.5018L59.3958 78.1724ZM60.8789 79.1032L61.7221 77.7197L61.6553 77.6789L61.5848 77.6448L60.8789 79.1032ZM61.2608 79.3359L60.4175 80.7195L60.8023 80.954L61.253 80.9562L61.2608 79.3359ZM61.353 80.9567C62.2478 80.961 62.9767 80.239 62.981 79.3442C62.9853 78.4494 62.2634 77.7205 61.3685 77.7162L61.3608 79.3364L61.353 80.9567ZM49.3835 68.8048L50.2774 70.1561L50.3608 70.101L49.4669 68.7496L48.573 67.3983L48.4896 67.4535L49.3835 68.8048ZM49.4669 68.7496L50.4597 70.03C51.6291 69.1234 52.4515 68.7375 52.9665 68.637L52.6563 67.0467L52.346 65.4565C51.0915 65.7012 49.7877 66.4506 48.4741 67.4692L49.4669 68.7496ZM52.6563 67.0467L52.9665 68.637C53.6412 68.5054 54.2877 68.2263 54.8254 67.7415C55.3659 67.2543 55.7097 66.6375 55.8982 65.9705L54.3391 65.5298L52.7799 65.0891C52.7314 65.2608 52.6761 65.3162 52.6557 65.3346C52.6325 65.3555 52.5561 65.4155 52.346 65.4565L52.6563 67.0467ZM54.3391 65.5298L55.8982 65.9705C56.1359 65.1297 56.3642 64.3155 56.5829 63.5281L55.0218 63.0943L53.4607 62.6606C53.2433 63.443 53.0164 64.2525 52.7799 65.0891L54.3391 65.5298ZM55.0218 63.0943L56.5829 63.5281C56.6322 63.3507 56.666 63.2479 56.6841 63.1995C56.6936 63.1743 56.6891 63.1901 56.6693 63.229C56.6663 63.2348 56.584 63.4081 56.3983 63.587C56.3013 63.6804 56.0834 63.8664 55.7403 63.9644C55.3377 64.0794 54.8921 64.034 54.5093 63.8149C54.1815 63.6274 54.0094 63.376 53.9353 63.2504C53.8549 63.1143 53.8149 62.998 53.7971 62.9406C53.743 62.7665 53.7532 62.6667 53.758 62.8069L55.3773 62.7519L56.9966 62.6969C56.9919 62.5588 56.9803 62.2645 56.8919 61.9798C56.8655 61.8947 56.8161 61.756 56.7256 61.6027C56.6413 61.46 56.4583 61.1967 56.1188 61.0024C55.7243 60.7766 55.2662 60.7297 54.8504 60.8485C54.494 60.9503 54.2621 61.1454 54.1502 61.2531C53.9349 61.4605 53.8199 61.6833 53.7811 61.7595C53.7254 61.8689 53.682 61.9761 53.6493 62.0633C53.5833 62.2397 53.5205 62.4455 53.4607 62.6606L55.0218 63.0943ZM55.3773 62.7519L53.758 62.8069C53.7927 63.8301 54.2615 64.7562 54.8779 65.5539L56.16 64.5633L57.4422 63.5728C57.0527 63.0686 56.9997 62.7871 56.9966 62.6969L55.3773 62.7519ZM56.16 64.5633L54.8779 65.5539C55.3883 66.2146 55.9272 66.8965 56.4945 67.5997L57.7555 66.5823L59.0165 65.5649C58.4623 64.878 57.9376 64.214 57.4422 63.5728L56.16 64.5633ZM57.7555 66.5823L56.4945 67.5997C57.3293 68.6343 58.4588 69.2421 59.8045 69.2759L59.8451 67.6562L59.8858 66.0364C59.5669 66.0284 59.3033 65.9203 59.0165 65.5649L57.7555 66.5823ZM59.8451 67.6562L59.8045 69.2759C60.2256 69.2865 60.5649 69.2909 60.8086 69.2875C60.9246 69.2859 61.053 69.2822 61.1689 69.2719C61.2184 69.2676 61.3244 69.2573 61.4454 69.2299C61.4993 69.2177 61.6304 69.1863 61.7835 69.1156C61.8377 69.0907 62.3853 68.8573 62.629 68.2075L61.1119 67.6386L59.5949 67.0696C59.7275 66.7161 59.9486 66.4979 60.084 66.3872C60.2234 66.2732 60.3523 66.2072 60.4262 66.1731C60.5714 66.1061 60.6914 66.0781 60.7309 66.0692C60.7842 66.0571 60.8248 66.0512 60.8433 66.0486C60.8642 66.0458 60.8783 66.0445 60.8829 66.0441C60.8902 66.0434 60.8587 66.046 60.7636 66.0473C60.585 66.0498 60.2969 66.0467 59.8858 66.0364L59.8451 67.6562ZM61.1119 67.6386L62.2981 66.5348L62.222 66.453L61.0358 67.5568L59.8497 68.6605L59.9258 68.7423L61.1119 67.6386ZM61.0358 67.5568L60.5038 69.0872L60.5983 69.12L61.1303 67.5896L61.6623 66.0592L61.5679 66.0264L61.0358 67.5568ZM49.3835 68.8048L50.0625 67.3337L49.9717 67.2918L49.2927 68.7629L48.6137 70.234L48.7045 70.2759L49.3835 68.8048ZM49.2927 68.7629L48.8097 67.2163C47.4034 67.6555 46.8179 67.5349 46.6707 67.4625L45.9557 68.9165L45.2407 70.3704C46.567 71.0226 48.2062 70.7996 49.7757 70.3095L49.2927 68.7629ZM45.9557 68.9165L46.6707 67.4625C46.2824 67.2716 46.1724 67.0815 46.1218 66.8999L44.5611 67.3352L43.0004 67.7705C43.3357 68.9727 44.1554 69.8367 45.2407 70.3704L45.9557 68.9165ZM44.5611 67.3352L46.1218 66.8999C46.0229 66.5454 45.9301 66.2382 45.846 66.0087C45.809 65.9079 45.7465 65.7454 45.6576 65.5878C45.6231 65.5267 45.5148 65.3368 45.3191 65.1553C45.1734 65.0201 44.423 64.4103 43.4701 64.8867L44.1947 66.3359L44.9193 67.7851C44.505 67.9923 44.0672 67.992 43.7129 67.879C43.4062 67.7812 43.2073 67.6163 43.1153 67.531C42.9369 67.3655 42.848 67.2028 42.8353 67.1801C42.7897 67.0994 42.7794 67.0586 42.8036 67.1243C42.8415 67.2279 42.9063 67.4332 43.0004 67.7705L44.5611 67.3352ZM44.1947 66.3359L42.5978 66.6104L42.6116 66.6908L44.2085 66.4163L45.8053 66.1419L45.7915 66.0615L44.1947 66.3359ZM44.2085 66.4163L44.8875 64.9452L44.7967 64.9033L44.1177 66.3744L43.4387 67.8455L43.5295 67.8874L44.2085 66.4163ZM49.3835 68.8048L47.7636 68.8402L47.7658 68.9402L49.3857 68.9048L51.0055 68.8693L51.0034 68.7693L49.3835 68.8048ZM49.3857 68.9048L47.7888 68.6304C47.5224 70.1812 47.3625 71.4363 47.3339 72.351L48.9533 72.4017L50.5728 72.4523C50.5942 71.7687 50.7225 70.6925 50.9825 69.1791L49.3857 68.9048ZM48.9533 72.4017L47.3339 72.351C47.3001 73.4297 47.539 74.4848 48.0051 75.4998L49.4775 74.8237L50.95 74.1476C50.6671 73.5316 50.5565 72.972 50.5728 72.4523L48.9533 72.4017ZM49.4775 74.8237L48.0051 75.4998C48.2578 76.0501 48.3035 76.5096 48.2256 76.923L49.8179 77.2227L51.4102 77.5224C51.6275 76.3682 51.4462 75.2284 50.95 74.1476L49.4775 74.8237ZM49.8179 77.2227L48.2256 76.923C48.0724 77.7372 47.9418 78.5592 47.8338 79.389L49.4405 79.5981L51.0472 79.8072C51.1474 79.0374 51.2684 78.2758 51.4102 77.5224L49.8179 77.2227ZM49.4405 79.5981L47.8338 79.389C47.7051 80.3776 47.7509 81.3621 47.9709 82.3339L49.5512 81.9761L51.1314 81.6182C50.9957 81.0189 50.9677 80.4182 51.0472 79.8072L49.4405 79.5981ZM49.5512 81.9761L47.9709 82.3339C48.1611 83.1739 48.3981 84.019 48.6811 84.8691L50.2184 84.3574L51.7557 83.8456C51.5048 83.0917 51.2969 82.3493 51.1314 81.6182L49.5512 81.9761ZM50.2184 84.3574L48.6811 84.8691C49.0991 86.1247 49.9687 87.0448 51.1886 87.5491L51.8076 86.0517L52.4265 84.5544C52.0615 84.4035 51.8717 84.194 51.7557 83.8456L50.2184 84.3574ZM51.8076 86.0517L51.1886 87.5491C51.8477 87.8215 52.4678 88.1794 53.0512 88.6265L54.0368 87.3405L55.0223 86.0545C54.2184 85.4384 53.3524 84.9371 52.4265 84.5544L51.8076 86.0517ZM54.0368 87.3405L53.0512 88.6265C54.0993 89.4298 55.3285 89.7386 56.6332 89.5481L56.399 87.9449L56.1649 86.3416C55.7072 86.4085 55.3616 86.3144 55.0223 86.0545L54.0368 87.3405ZM56.399 87.9449L56.6332 89.5481C57.7151 89.3901 58.737 89.0377 59.6894 88.4954L58.8877 87.0874L58.086 85.6794C57.4825 86.0231 56.8453 86.2423 56.1649 86.3416L56.399 87.9449ZM58.8877 87.0874L59.6894 88.4954C60.7279 87.9041 61.5432 87.0743 62.1005 86.0234L60.669 85.2643L59.2376 84.5053C58.9756 84.9992 58.6034 85.3848 58.086 85.6794L58.8877 87.0874ZM60.669 85.2643L62.1005 86.0234C62.5778 85.1232 62.9231 84.1839 63.1302 83.2083L61.5452 82.872L59.9603 82.5356C59.8182 83.2049 59.5794 83.8606 59.2376 84.5053L60.669 85.2643ZM61.5452 82.872L63.1302 83.2083C63.3722 82.0676 63.2704 80.9354 62.8327 79.8534L61.3307 80.4611L59.8288 81.0688C60.026 81.5565 60.0673 82.0314 59.9603 82.5356L61.5452 82.872ZM61.3307 80.4611L62.8327 79.8534C62.5927 79.2603 62.4813 78.6703 62.4876 78.0724L60.8674 78.0552L59.2473 78.0381C59.2363 79.0785 59.4337 80.0924 59.8288 81.0688L61.3307 80.4611ZM60.8674 78.0552L62.4876 78.0724C62.4968 77.2051 62.4672 76.3467 62.3987 75.4975L60.7837 75.6279L59.1687 75.7583C59.2292 76.5072 59.2554 77.2671 59.2473 78.0381L60.8674 78.0552ZM60.7837 75.6279L62.3987 75.4975C62.3496 74.8901 62.4059 74.2776 62.5746 73.6521L61.0102 73.2304L59.4458 72.8086C59.1834 73.7817 59.0887 74.7676 59.1687 75.7583L60.7837 75.6279ZM61.0102 73.2304L62.5746 73.6521C62.8731 72.5449 62.8401 71.4253 62.4852 70.3323L60.9442 70.8328L59.4031 71.3332C59.5672 71.8384 59.5782 72.3172 59.4458 72.8086L61.0102 73.2304ZM60.9442 70.8328L62.4852 70.3323C62.2604 69.6401 62.1491 69.0441 62.1251 68.5355L60.5067 68.6119L58.8882 68.6882C58.9285 69.5426 59.1089 70.4272 59.4031 71.3332L60.9442 70.8328ZM60.5067 68.6119L62.1251 68.5355C62.1111 68.2386 62.1389 68.196 62.1141 68.2841C62.1008 68.3315 62.0381 68.5426 61.8317 68.7624C61.5804 69.0302 61.2072 69.2099 60.7944 69.2099V67.5896V65.9694C60.2695 65.9694 59.8004 66.1917 59.4691 66.5446C59.1827 66.8496 59.0561 67.1885 58.9948 67.4062C58.8741 67.8351 58.87 68.3036 58.8882 68.6882L60.5067 68.6119ZM60.7944 67.5896L60.3358 69.1436L60.6746 69.2436L61.1331 67.6896L61.5917 66.1356L61.2529 66.0356L60.7944 67.5896ZM61.1331 67.6896L62.7527 67.644L62.7499 67.5441L61.1303 67.5896L59.5107 67.6351L59.5135 67.7351L61.1331 67.6896ZM61.1303 67.5896L62.3346 68.6735L62.4015 68.5992L61.1972 67.5153L59.9929 66.4314L59.926 66.5057L61.1303 67.5896ZM61.1972 67.5153L61.2104 69.1355C62.0802 69.1284 62.9015 69.0372 63.6037 68.7974C64.3106 68.556 65.056 68.1045 65.4728 67.2797L64.0267 66.5489L62.5806 65.8182C62.6784 65.6247 62.7926 65.6501 62.5564 65.7308C62.3154 65.8131 61.8815 65.8894 61.184 65.8951L61.1972 67.5153ZM64.0267 66.5489L65.4728 67.2797C65.8899 66.4543 66.1337 65.5684 66.2096 64.6362L64.5947 64.5047L62.9798 64.3732C62.9366 64.9037 62.8017 65.3807 62.5806 65.8182L64.0267 66.5489ZM64.5947 64.5047L66.2096 64.6362C66.239 64.2746 66.2626 64.0391 66.2797 63.909C66.2902 63.8284 66.2908 63.8479 66.2753 63.9095C66.2701 63.9301 66.2584 63.9744 66.2382 64.0314C66.2235 64.0728 66.1764 64.2028 66.0796 64.3529C66.0407 64.4133 65.7001 64.9664 64.9542 65.0734C64.0279 65.2064 63.5126 64.5599 63.4019 64.4014L64.73 63.4733L66.058 62.5451C65.9435 62.3812 65.4243 61.7323 64.4939 61.8658C63.7439 61.9734 63.3992 62.5302 63.3559 62.5972C63.1918 62.8519 63.1365 63.1038 63.1333 63.1167C63.0988 63.2533 63.0787 63.3963 63.0667 63.4876C63.0387 63.7013 63.0099 64.0034 62.9798 64.3732L64.5947 64.5047ZM64.73 63.4733L63.1276 63.2332L63.1066 63.3732L64.709 63.6133L66.3113 63.8534L66.3323 63.7134L64.73 63.4733ZM64.709 63.6133L65.9133 64.6972L65.9802 64.6229L64.7759 63.539L63.5715 62.4551L63.5046 62.5294L64.709 63.6133ZM49.3835 79.3364L49.3902 80.9567L49.4902 80.9562L49.4835 79.336L49.4768 77.7158L49.3768 77.7162L49.3835 79.3364ZM49.4835 79.336L50.0688 80.8468C51.5227 80.2835 52.658 79.7964 53.4319 79.3896L52.678 77.9554L51.924 76.5213C51.3199 76.8389 50.3256 77.2721 48.8981 77.8252L49.4835 79.336ZM52.678 77.9554L53.4319 79.3896C53.9509 79.1168 54.4829 78.9511 55.0358 78.8845L54.842 77.2759L54.6481 75.6673C53.6937 75.7823 52.783 76.0697 51.924 76.5213L52.678 77.9554ZM54.842 77.2759L55.0358 78.8845C55.6415 78.8115 56.2819 78.8181 56.9614 78.9122L57.1835 77.3072L57.4056 75.7023C56.4704 75.5729 55.5498 75.5586 54.6481 75.6673L54.842 77.2759ZM57.1835 77.3072L56.9614 78.9122C57.5161 78.9889 58.0122 79.1831 58.4696 79.5018L59.3958 78.1724L60.322 76.843C59.4444 76.2315 58.4656 75.849 57.4056 75.7023L57.1835 77.3072ZM59.3958 78.1724L58.4696 79.5018C59.1415 79.9699 59.7266 80.3456 60.173 80.5616L60.8789 79.1032L61.5848 77.6448C61.3886 77.5499 60.985 77.3049 60.322 76.843L59.3958 78.1724ZM60.8789 79.1032L60.0356 80.4867L60.4175 80.7195L61.2608 79.3359L62.104 77.9524L61.7221 77.7197L60.8789 79.1032ZM61.2608 79.3359L61.253 80.9562L61.353 80.9567L61.3608 79.3364L61.3685 77.7162L61.2685 77.7157L61.2608 79.3359Z" fill="#2E2F2F"/>
</svg>
